STARTFONT 2.1
COMMENT This font image is originally translated from Metafont ``dvng10''
COMMENT from devnagri package.
COMMENT DPI was ``147'', usermag ``1000'', blackness ``3''
COMMENT shrink was 1
FONT -Misc-Fixed-Medium-R-Normal--24-240-72-72-C-120-MuleIndian-2
SIZE 24 72 72
FONTBOUNDINGBOX 24 27 0 -5
STARTPROPERTIES 22
FOUNDRY "Misc"
FAMILY_NAME "Fixed"
WEIGHT_NAME "Medium"
SLANT "R"
SETWIDTH_NAME "Normal"
ADD_STYLE_NAME ""
PIXEL_SIZE 24
POINT_SIZE 240
RESOLUTION_X 72
RESOLUTION_Y 72
SPACING "C"
AVERAGE_WIDTH 240
CHARSET_REGISTRY "MuleIndian"
CHARSET_ENCODING "2"
STRIKEOUT_ASCENT 22
STRIKEOUT_DESCENT 5
X_HEIGHT 10
FACE_NAME "Indian"
COPYRIGHT "Public domain"
FONT_ASCENT 22
FONT_DESCENT 5
DEFAULT_CHAR 32
ENDPROPERTIES
CHARS 376
STARTCHAR c2121
ENCODING 8481
SWIDTH 500 0
DWIDTH 24 0
BBX 24 5 0 15
BITMAP
000258
0001f8
0001d8
0000f8
000070
ENDCHAR
STARTCHAR c2122
ENCODING 8482
SWIDTH 500 0
DWIDTH 24 0
BBX 24 3 0 16
BITMAP
000010
000038
000010
ENDCHAR
STARTCHAR c2123
ENCODING 8483
SWIDTH 500 0
DWIDTH 24 0
BBX 24 8 0 2
BITMAP
020000
070000
020000
000000
000000
020000
070000
020000
ENDCHAR
STARTCHAR c2124
ENCODING 8484
SWIDTH 500 0
DWIDTH 24 0
BBX 24 14 0 0
BITMAP
0f3ffe
3f9fff
18c300
00c300
01c300
0f8300
27cf00
307f00
107b00
08e300
07c300
038300
000300
000100
ENDCHAR
STARTCHAR c2125
ENCODING 8485
SWIDTH 500 0
DWIDTH 24 0
BBX 24 14 0 0
BITMAP
0f3ffe
3f9fff
18c30c
00c30c
01c30c
0f830c
27cf0c
307f0c
107b0c
08e30c
07c30c
03830c
00030c
000104
ENDCHAR
STARTCHAR c2126
ENCODING 8486
SWIDTH 500 0
DWIDTH 24 0
BBX 24 15 0 -1
BITMAP
fffffe
7fffff
001800
01f800
03f800
030000
01f000
00f800
000c00
01dc00
03f800
01f000
000800
000c00
000400
ENDCHAR
STARTCHAR c2127
ENCODING 8487
SWIDTH 500 0
DWIDTH 24 0
BBX 24 20 0 -1
BITMAP
003800
007c00
006200
002000
001000
fffffe
7fffff
001800
01f800
03f800
030000
01f000
00f800
000c00
01dc00
03f800
01f000
000800
000c00
000400
ENDCHAR
STARTCHAR c2128
ENCODING 8488
SWIDTH 500 0
DWIDTH 24 0
BBX 24 13 0 1
BITMAP
fffffe
7fffff
000300
000300
000700
007e00
013c00
018200
018300
008300
004700
003e00
001c00
ENDCHAR
STARTCHAR c2129
ENCODING 8489
SWIDTH 500 0
DWIDTH 24 0
BBX 24 13 0 1
BITMAP
fffffe
7fffff
001800
001800
003800
03f000
09e700
0c1f80
0c1c40
041860
0238e0
01f1c0
00e080
ENDCHAR
STARTCHAR c212a
ENCODING 8490
SWIDTH 500 0
DWIDTH 24 0
BBX 24 14 0 0
BITMAP
fffffe
7fffff
003000
0f3000
1fb180
0877c0
007fc0
00fcc0
03f0c0
0fb1e0
063380
003300
0031f0
0010f8
ENDCHAR
STARTCHAR c212b
ENCODING 8491
SWIDTH 500 0
DWIDTH 24 0
BBX 24 25 0 -5
BITMAP
070000
038000
01f800
00fc00
000e00
000700
fffffe
7fffff
018600
018600
018600
018600
018600
018600
019e00
018c00
00c000
002000
001000
000c00
000600
000100
000180
000380
000300
ENDCHAR
STARTCHAR c212c
ENCODING 8492
SWIDTH 500 0
DWIDTH 24 0
BBX 24 19 0 -5
BITMAP
fffffe
7fffff
018600
018600
018600
018600
018600
018600
019e00
018c00
00c000
002000
001000
000c00
000600
000100
000180
000380
000300
ENDCHAR
STARTCHAR c212d
ENCODING 8493
SWIDTH 500 0
DWIDTH 24 0
BBX 24 25 0 -5
BITMAP
038000
01e000
003000
000800
000400
000600
fffffe
7fffff
018600
018600
018600
018600
018600
018600
019e00
018c00
00c000
002000
001000
000c00
000600
000100
000180
000380
000300
ENDCHAR
STARTCHAR c212e
ENCODING 8494
SWIDTH 500 0
DWIDTH 24 0
BBX 24 25 0 -5
BITMAP
008600
004600
006600
003e00
001c00
000000
fffffe
7fffff
018600
018600
018600
018600
018600
018600
019e00
018c00
00c000
002000
001000
000c00
000600
000100
000180
000380
000300
ENDCHAR
STARTCHAR c212f
ENCODING 8495
SWIDTH 500 0
DWIDTH 24 0
BBX 24 20 0 0
BITMAP
001c00
000e00
0007e0
0003f0
000038
00001c
0f3ffe
3f9fff
18c30c
00c30c
01c30c
0f830c
27cf0c
307f0c
107b0c
08e30c
07c30c
03830c
00030c
000104
ENDCHAR
STARTCHAR c2130
ENCODING 8496
SWIDTH 500 0
DWIDTH 24 0
BBX 24 20 0 0
BITMAP
000e00
000780
0000c0
000020
000010
000018
0f3ffe
3f9fff
18c30c
00c30c
01c30c
0f830c
27cf0c
307f0c
107b0c
08e30c
07c30c
03830c
00030c
000104
ENDCHAR
STARTCHAR c2131
ENCODING 8497
SWIDTH 500 0
DWIDTH 24 0
BBX 24 21 0 0
BITMAP
000380
0001c0
000020
000f10
0007d8
000068
00001c
0f3ffe
3f9fff
18c30c
00c30c
01c30c
0f830c
27cf0c
307f0c
107b0c
08e30c
07c30c
03830c
00030c
000104
ENDCHAR
STARTCHAR c2132
ENCODING 8498
SWIDTH 500 0
DWIDTH 24 0
BBX 24 20 0 0
BITMAP
00010c
00008c
0000cc
00007c
000038
000000
0f3ffe
3f9fff
18c30c
00c30c
01c30c
0f830c
27cf0c
307f0c
107b0c
08e30c
07c30c
03830c
00030c
000104
ENDCHAR
STARTCHAR c2133
ENCODING 8499
SWIDTH 500 0
DWIDTH 24 0
BBX 24 14 0 0
BITMAP
fffffe
7fffff
003000
03f000
07ff00
063f80
0638c0
0630c0
03f0c0
01f0c0
0031c0
003180
003080
001000
ENDCHAR
STARTCHAR c2134
ENCODING 8500
SWIDTH 500 0
DWIDTH 24 0
BBX 24 14 0 0
BITMAP
fffffe
7fffff
00c180
01c180
05bf80
07ff80
07e180
036180
033f80
011f80
008180
004180
002180
001080
ENDCHAR
STARTCHAR c2135
ENCODING 8501
SWIDTH 500 0
DWIDTH 24 0
BBX 24 14 0 0
BITMAP
fffffe
7fffff
008300
00c300
00c300
00c300
03c300
03c300
01c300
01c300
000300
000300
000300
000100
ENDCHAR
STARTCHAR c2136
ENCODING 8502
SWIDTH 500 0
DWIDTH 24 0
BBX 24 14 0 0
BITMAP
fffffe
7fffff
030300
010300
00f300
01fb00
018300
018f00
00ff00
007b00
000300
000300
000300
000100
ENDCHAR
STARTCHAR c2137
ENCODING 8503
SWIDTH 500 0
DWIDTH 24 0
BBX 24 12 0 2
BITMAP
fffffe
7fffff
000c00
00fc00
01fc00
018080
00f9c0
047c80
060600
020e00
01fc00
00f800
ENDCHAR
STARTCHAR c2138
ENCODING 8504
SWIDTH 500 0
DWIDTH 24 0
BBX 24 14 0 0
BITMAP
fffffe
7fffff
000300
000300
07fb00
03ff00
018300
018700
00ff00
007f00
000300
000300
000300
000100
ENDCHAR
STARTCHAR c2139
ENCODING 8505
SWIDTH 500 0
DWIDTH 24 0
BBX 24 16 0 -2
BITMAP
fffffe
7fffff
000300
07c700
0fef80
0c0cc0
040cc0
03e4c0
01f3c0
038180
0303c0
030f20
01fe30
00f830
0000f0
000060
ENDCHAR
STARTCHAR c213a
ENCODING 8506
SWIDTH 500 0
DWIDTH 24 0
BBX 24 14 0 0
BITMAP
fffffe
7fffff
0000c0
0000c0
047fc0
063fc0
0218c0
0308c0
010cc0
008cc0
007cc0
0038c0
0000c0
000040
ENDCHAR
STARTCHAR c213b
ENCODING 8507
SWIDTH 500 0
DWIDTH 24 0
BBX 24 15 0 -1
BITMAP
fffffe
7fffff
0030c0
03f0c0
07f0c0
0600c0
03e3c0
01ffc0
001ec0
03b8c0
07f0c0
03e0c0
0010c0
001840
000800
ENDCHAR
STARTCHAR c213c
ENCODING 8508
SWIDTH 500 0
DWIDTH 24 0
BBX 24 14 0 0
BITMAP
fffffe
7fffff
000180
010180
01c180
006180
003f80
023f80
033180
037180
01e180
00c180
000180
000080
ENDCHAR
STARTCHAR c213d
ENCODING 8509
SWIDTH 500 0
DWIDTH 24 0
BBX 24 13 0 1
BITMAP
fffffe
7fffff
000600
000600
003e00
00fe00
01e000
018000
018000
018000
008380
007f80
003e00
ENDCHAR
STARTCHAR c213e
ENCODING 8510
SWIDTH 500 0
DWIDTH 24 0
BBX 24 13 0 1
BITMAP
fffffe
7fffff
000c00
000c00
007c00
01fc00
03c200
030100
030180
030180
010380
00ff00
007e00
ENDCHAR
STARTCHAR c213f
ENCODING 8511
SWIDTH 500 0
DWIDTH 24 0
BBX 24 12 0 2
BITMAP
fffffe
7fffff
000300
003f00
007f00
006000
003e00
011f00
018180
008380
007f00
003e00
ENDCHAR
STARTCHAR c2140
ENCODING 8512
SWIDTH 500 0
DWIDTH 24 0
BBX 24 13 0 1
BITMAP
fffffe
7fffff
000600
007e00
00fe00
01c000
018000
018e00
019f00
00b980
007180
003f80
001f00
ENDCHAR
STARTCHAR c2141
ENCODING 8513
SWIDTH 500 0
DWIDTH 24 0
BBX 24 14 0 0
BITMAP
fffffe
7fffff
019980
019980
019980
019980
019980
019980
00f980
007180
000180
000180
000180
000080
ENDCHAR
STARTCHAR c2142
ENCODING 8514
SWIDTH 500 0
DWIDTH 24 0
BBX 24 14 0 0
BITMAP
fffffe
7fffff
000300
000300
00ff00
01ff00
018300
018300
018300
008300
00c300
004300
002300
001100
ENDCHAR
STARTCHAR c2143
ENCODING 8515
SWIDTH 500 0
DWIDTH 24 0
BBX 24 14 0 0
BITMAP
00cffe
01e7ff
01b180
01b180
00f180
01f180
01c180
008380
007f80
003f80
000180
000180
000180
000080
ENDCHAR
STARTCHAR c2144
ENCODING 8516
SWIDTH 500 0
DWIDTH 24 0
BBX 24 13 0 1
BITMAP
fffffe
7fffff
000300
007f00
00ff00
00c000
00c000
00c600
004f00
003f00
001f00
000300
000180
ENDCHAR
STARTCHAR c2145
ENCODING 8517
SWIDTH 500 0
DWIDTH 24 0
BBX 24 14 0 0
BITMAP
011ffe
038fff
030300
010300
00f300
01fb00
018300
018f00
00ff00
007b00
000300
000300
000300
000100
ENDCHAR
STARTCHAR c2146
ENCODING 8518
SWIDTH 500 0
DWIDTH 24 0
BBX 24 14 0 0
BITMAP
fffffe
7fffff
000300
000300
000300
00ff00
01ff00
00e300
004300
000300
000300
000300
000300
000100
ENDCHAR
STARTCHAR c2147
ENCODING 8519
SWIDTH 500 0
DWIDTH 24 0
BBX 24 15 0 -1
BITMAP
fffffe
7fffff
000300
000300
000300
00ff00
01ff00
00e300
004300
000300
000300
000300
002300
007100
002000
ENDCHAR
STARTCHAR c2148
ENCODING 8520
SWIDTH 500 0
DWIDTH 24 0
BBX 24 14 0 0
BITMAP
fffffe
7fffff
00c300
00c300
00c300
004300
006300
003f00
001f00
000300
000300
000300
000300
000100
ENDCHAR
STARTCHAR c2149
ENCODING 8521
SWIDTH 500 0
DWIDTH 24 0
BBX 24 14 0 0
BITMAP
fffffe
7fffff
061800
061800
061f80
021fc0
031c60
01f860
00f860
0018e0
0018c0
0018c0
001840
000800
ENDCHAR
STARTCHAR c214a
ENCODING 8522
SWIDTH 500 0
DWIDTH 24 0
BBX 24 14 0 0
BITMAP
fffffe
7fffff
000300
007b00
00ff00
01e300
019300
019b00
008f00
007f00
003f00
000300
000300
000100
ENDCHAR
STARTCHAR c214b
ENCODING 8523
SWIDTH 500 0
DWIDTH 24 0
BBX 24 14 0 0
BITMAP
061ffe
030fff
008300
00c300
00c300
00c300
03ff00
03ff00
01c300
00c300
000300
000300
000300
000100
ENDCHAR
STARTCHAR c214c
ENCODING 8524
SWIDTH 500 0
DWIDTH 24 0
BBX 24 14 0 0
BITMAP
fffffe
7fffff
00c180
00c180
00c180
00c180
03ff80
03ff80
03c180
01c180
000180
000180
000180
000080
ENDCHAR
STARTCHAR c214d
ENCODING 8525
SWIDTH 500 0
DWIDTH 24 0
BBX 24 14 0 0
BITMAP
fffffc
7fffff
006300
006300
00e300
03c300
038300
010700
00ff00
007f00
000300
000300
000300
000100
ENDCHAR
STARTCHAR c214e
ENCODING 8526
SWIDTH 500 0
DWIDTH 24 0
BBX 24 17 0 -3
BITMAP
fffffc
7fffff
006300
006300
00e300
03c300
038300
010700
00ff00
007f00
000300
000300
000300
000100
001000
003800
001000
ENDCHAR
STARTCHAR c214f
ENCODING 8527
SWIDTH 500 0
DWIDTH 24 0
BBX 24 14 0 0
BITMAP
fffffe
7fffff
003800
003000
00b000
00f000
00f000
006000
006000
002000
001000
000800
000600
000300
ENDCHAR
STARTCHAR c2150
ENCODING 8528
SWIDTH 500 0
DWIDTH 24 0
BBX 24 17 0 -3
BITMAP
fffffe
7fffff
003800
003000
00b000
00f000
00f000
006000
006000
002000
001000
000800
000600
000300
001000
003800
001000
ENDCHAR
STARTCHAR c2151
ENCODING 8529
SWIDTH 500 0
DWIDTH 24 0
BBX 24 14 0 0
BITMAP
fffffe
7fffff
0000c0
0000c0
01e3c0
03f7c0
030ec0
030cc0
0304c0
0100c0
0180c0
0080c0
0040c0
002040
ENDCHAR
STARTCHAR c2152
ENCODING 8530
SWIDTH 500 0
DWIDTH 24 0
BBX 24 13 0 1
BITMAP
fffffe
7fffff
000600
000600
038f00
07df80
0e3840
0c3860
0c3060
0c7060
0470e0
03ffc0
01c780
ENDCHAR
STARTCHAR c2153
ENCODING 8531
SWIDTH 500 0
DWIDTH 24 0
BBX 24 17 0 -3
BITMAP
fffffe
7fffff
000600
000600
038f00
07df80
0e3840
0c3860
0c3060
0c7060
0470e0
03ffc0
01c780
000000
001000
003800
001000
ENDCHAR
STARTCHAR c2154
ENCODING 8532
SWIDTH 500 0
DWIDTH 24 0
BBX 24 14 0 0
BITMAP
fffffe
7fffff
000300
007b00
00ff00
01c300
018300
018300
008700
007f00
003f00
000300
000300
000100
ENDCHAR
STARTCHAR c2155
ENCODING 8533
SWIDTH 500 0
DWIDTH 24 0
BBX 24 14 0 0
BITMAP
fffffe
7fffff
01c4c0
0186c0
0186c0
0086c0
007ec0
003ec0
03bcc0
03f8c0
01f0c0
0018c0
0008c0
000440
ENDCHAR
STARTCHAR c2156
ENCODING 8534
SWIDTH 500 0
DWIDTH 24 0
BBX 24 14 0 0
BITMAP
fffffe
7fffff
00e300
00f300
00db00
004f00
006700
003f00
001f00
000300
000300
000300
000300
000100
ENDCHAR
STARTCHAR c2157
ENCODING 8535
SWIDTH 500 0
DWIDTH 24 0
BBX 24 14 0 0
BITMAP
fffffe
7fffff
006180
00e180
02c180
03c380
03ff80
01bf80
018180
008180
00c180
004180
002180
001080
ENDCHAR
STARTCHAR c2158
ENCODING 8536
SWIDTH 500 0
DWIDTH 24 0
BBX 24 17 0 -3
BITMAP
fffffe
7fffff
000600
00fe00
01fe00
018000
018000
00fe00
00ff00
01e180
018180
018f80
008f00
006000
003800
000f00
000380
ENDCHAR
STARTCHAR c2159
ENCODING 8537
SWIDTH 500 0
DWIDTH 24 0
BBX 24 27 0 -5
BITMAP
ffffff
800001
800001
800001
800001
800001
800001
800001
800001
800001
800001
800001
800001
800001
800001
800001
800001
800001
800001
800001
800001
800001
800001
800001
800001
800001
ffffff
ENDCHAR
STARTCHAR c215a
ENCODING 8538
SWIDTH 500 0
DWIDTH 24 0
BBX 24 14 0 0
BITMAP
0ff000
07f800
030000
030000
030000
030000
030000
030000
030000
030000
030000
030000
030000
010000
ENDCHAR
STARTCHAR c215b
ENCODING 8539
SWIDTH 500 0
DWIDTH 24 0
BBX 24 20 0 0
BITMAP
01f000
03fc00
030600
030100
030000
030000
0ff000
07f800
030000
030000
030000
030000
030000
030000
030000
030000
030000
030000
030000
010000
ENDCHAR
STARTCHAR c215c
ENCODING 8540
SWIDTH 500 0
DWIDTH 24 0
BBX 24 20 0 0
BITMAP
3c0000
7e0000
e10000
c08000
40c000
00c000
01fe00
00ff00
006000
006000
006000
006000
006000
006000
006000
006000
006000
006000
006000
002000
ENDCHAR
STARTCHAR c215d
ENCODING 8541
SWIDTH 500 0
DWIDTH 24 0
BBX 24 6 0 -5
BITMAP
008700
00ef80
007cc0
0038c0
001fc0
000780
ENDCHAR
STARTCHAR c215e
ENCODING 8542
SWIDTH 500 0
DWIDTH 24 0
BBX 24 6 0 -5
BITMAP
003c00
007e00
006300
007980
003c80
000040
ENDCHAR
STARTCHAR c215f
ENCODING 8543
SWIDTH 500 0
DWIDTH 24 0
BBX 24 6 0 -5
BITMAP
000e00
003f00
003000
003000
001f80
000f80
ENDCHAR
STARTCHAR c2160
ENCODING 8544
SWIDTH 500 0
DWIDTH 24 0
BBX 24 6 0 14
BITMAP
1c0000
0e0000
07e000
03f000
003800
001c00
ENDCHAR
STARTCHAR c2161
ENCODING 8545
SWIDTH 500 0
DWIDTH 24 0
BBX 24 6 0 14
BITMAP
0e0000
078000
00c000
002000
001000
001800
ENDCHAR
STARTCHAR c2162
ENCODING 8546
SWIDTH 500 0
DWIDTH 24 0
BBX 24 7 0 14
BITMAP
018000
00c000
002000
079000
03f800
003800
000c00
ENDCHAR
STARTCHAR c2163
ENCODING 8547
SWIDTH 500 0
DWIDTH 24 0
BBX 24 5 0 15
BITMAP
021800
011800
019800
00f800
007000
ENDCHAR
STARTCHAR c2164
ENCODING 8548
SWIDTH 500 0
DWIDTH 24 0
BBX 24 20 0 0
BITMAP
1c0000
0e0000
07e000
03f000
003800
001c00
003fc0
001fe0
000c00
000c00
000c00
000c00
000c00
000c00
000c00
000c00
000c00
000c00
000c00
000400
ENDCHAR
STARTCHAR c2165
ENCODING 8549
SWIDTH 500 0
DWIDTH 24 0
BBX 24 20 0 0
BITMAP
0e0000
078000
00c000
002000
001000
001800
003fc0
001fe0
000c00
000c00
000c00
000c00
000c00
000c00
000c00
000c00
000c00
000c00
000c00
000400
ENDCHAR
STARTCHAR c2166
ENCODING 8550
SWIDTH 500 0
DWIDTH 24 0
BBX 24 21 0 0
BITMAP
038000
01c000
002000
0f1000
07d800
006800
001c00
003fc0
001fe0
000c00
000c00
000c00
000c00
000c00
000c00
000c00
000c00
000c00
000c00
000c00
000400
ENDCHAR
STARTCHAR c2167
ENCODING 8551
SWIDTH 500 0
DWIDTH 24 0
BBX 24 20 0 0
BITMAP
010c00
008c00
00cc00
007c00
003800
000000
003fc0
001fe0
000c00
000c00
000c00
000c00
000c00
000c00
000c00
000c00
000c00
000c00
000c00
000400
ENDCHAR
STARTCHAR c2168
ENCODING 8552
SWIDTH 500 0
DWIDTH 24 0
BBX 24 4 0 -4
BITMAP
00f000
007800
000400
000200
ENDCHAR
STARTCHAR c2169
ENCODING 8553
SWIDTH 500 0
DWIDTH 24 0
BBX 24 3 0 -4
BITMAP
000800
001c00
000800
ENDCHAR
STARTCHAR c216a
ENCODING 8554
SWIDTH 500 0
DWIDTH 24 0
BBX 24 14 0 0
BITMAP
008000
00c000
00c000
00c000
00c000
00c000
00c000
00c000
00c000
00c000
00c000
00c000
00c000
004000
ENDCHAR
STARTCHAR c216b
ENCODING 8555
SWIDTH 500 0
DWIDTH 24 0
BBX 24 27 0 -5
BITMAP
000000
000000
000000
000000
000000
000000
000000
000000
000000
000000
000000
000000
000000
000000
000000
000000
000000
000000
000000
000000
000000
000000
000000
000000
000000
000000
000000
ENDCHAR
STARTCHAR c216c
ENCODING 8556
SWIDTH 500 0
DWIDTH 24 0
BBX 24 27 0 -5
BITMAP
000000
000000
000000
000000
000000
000000
000000
000000
000000
000000
000000
000000
000000
000000
000000
000000
000000
000000
000000
000000
000000
000000
000000
000000
000000
000000
000000
ENDCHAR
STARTCHAR c216d
ENCODING 8557
SWIDTH 500 0
DWIDTH 24 0
BBX 24 27 0 -5
BITMAP
000000
000000
000000
000000
000000
000000
000000
000000
000000
000000
000000
000000
000000
000000
000000
000000
000000
000000
000000
000000
000000
000000
000000
000000
000000
000000
000000
ENDCHAR
STARTCHAR c216e
ENCODING 8558
SWIDTH 500 0
DWIDTH 24 0
BBX 24 27 0 -5
BITMAP
000000
000000
000000
000000
000000
000000
000000
000000
000000
000000
000000
000000
000000
000000
000000
000000
000000
000000
000000
000000
000000
000000
000000
000000
000000
000000
000000
ENDCHAR
STARTCHAR c216f
ENCODING 8559
SWIDTH 500 0
DWIDTH 24 0
BBX 24 27 0 -5
BITMAP
000000
000000
000000
000000
000000
000000
000000
000000
000000
000000
000000
000000
000000
000000
000000
000000
000000
000000
000000
000000
000000
000000
000000
000000
000000
000000
000000
ENDCHAR
STARTCHAR c2170
ENCODING 8560
SWIDTH 500 0
DWIDTH 24 0
BBX 24 27 0 -5
BITMAP
000000
000000
000000
000000
000000
000000
000000
000000
000000
000000
000000
000000
000000
000000
000000
000000
000000
000000
000000
000000
000000
000000
000000
000000
000000
000000
000000
ENDCHAR
STARTCHAR c2171
ENCODING 8561
SWIDTH 500 0
DWIDTH 24 0
BBX 24 8 0 3
BITMAP
038000
07c000
0e2000
0c3000
0c3000
047000
03e000
01c000
ENDCHAR
STARTCHAR c2172
ENCODING 8562
SWIDTH 500 0
DWIDTH 24 0
BBX 24 17 0 -3
BITMAP
003000
007800
00e400
00c600
00c600
004e00
003e00
001c00
003800
00f000
00e000
004000
002000
001000
000800
000c00
000c00
ENDCHAR
STARTCHAR c2173
ENCODING 8563
SWIDTH 500 0
DWIDTH 24 0
BBX 24 15 0 -2
BITMAP
0fe000
07f000
000800
000c00
000c00
001c00
067800
07f000
03c000
004000
006000
002000
001000
001800
000800
ENDCHAR
STARTCHAR c2174
ENCODING 8564
SWIDTH 500 0
DWIDTH 24 0
BBX 24 15 0 -2
BITMAP
0f8000
07c000
006000
006000
0fe000
07c000
002000
003000
0cf000
0fe000
078000
008000
004000
006000
002000
ENDCHAR
STARTCHAR c2175
ENCODING 8565
SWIDTH 500 0
DWIDTH 24 0
BBX 24 12 0 2
BITMAP
080600
040f00
021c00
017800
00f000
01c000
03e000
032000
033000
033000
01f000
00e000
ENDCHAR
STARTCHAR c2176
ENCODING 8566
SWIDTH 500 0
DWIDTH 24 0
BBX 24 15 0 -1
BITMAP
082000
0c3000
0c3000
0c3000
043000
06f000
03e000
01e000
00e000
00c000
07c000
0fe000
073000
000800
000400
ENDCHAR
STARTCHAR c2177
ENCODING 8567
SWIDTH 500 0
DWIDTH 24 0
BBX 24 16 0 -2
BITMAP
03c000
07e000
0e0000
0c0000
040000
03e000
03f000
070000
060000
063000
023800
01f800
00f000
001800
001800
000800
ENDCHAR
STARTCHAR c2178
ENCODING 8568
SWIDTH 500 0
DWIDTH 24 0
BBX 24 13 0 1
BITMAP
080000
0c0000
0c7800
0cfc00
0cc200
0cc300
044700
063f00
021f00
030700
010e00
00fc00
007800
ENDCHAR
STARTCHAR c2179
ENCODING 8569
SWIDTH 500 0
DWIDTH 24 0
BBX 24 12 0 0
BITMAP
0ffc00
07fe00
030000
070000
060000
060000
060000
063800
03fc00
01e600
000e00
000400
ENDCHAR
STARTCHAR c217a
ENCODING 8570
SWIDTH 500 0
DWIDTH 24 0
BBX 24 16 0 -2
BITMAP
078000
0fc000
0c6000
0c6000
04e000
07c000
038000
010000
018000
008000
004000
002000
001000
000800
003c00
001800
ENDCHAR
STARTCHAR c217b
ENCODING 8571
SWIDTH 500 0
DWIDTH 24 0
BBX 24 27 0 -5
BITMAP
000000
000000
000000
000000
000000
000000
000000
000000
000000
000000
000000
000000
000000
000000
000000
000000
000000
000000
000000
000000
000000
000000
000000
000000
000000
000000
000000
ENDCHAR
STARTCHAR c217c
ENCODING 8572
SWIDTH 500 0
DWIDTH 24 0
BBX 24 27 0 -5
BITMAP
000000
000000
000000
000000
000000
000000
000000
000000
000000
000000
000000
000000
000000
000000
000000
000000
000000
000000
000000
000000
000000
000000
000000
000000
000000
000000
000000
ENDCHAR
STARTCHAR c217d
ENCODING 8573
SWIDTH 500 0
DWIDTH 24 0
BBX 24 27 0 -5
BITMAP
000000
000000
000000
000000
000000
000000
000000
000000
000000
000000
000000
000000
000000
000000
000000
000000
000000
000000
000000
000000
000000
000000
000000
000000
000000
000000
000000
ENDCHAR
STARTCHAR c217e
ENCODING 8574
SWIDTH 500 0
DWIDTH 24 0
BBX 24 27 0 -5
BITMAP
000000
000000
000000
000000
000000
000000
000000
000000
000000
000000
000000
000000
000000
000000
000000
000000
000000
000000
000000
000000
000000
000000
000000
000000
000000
000000
000000
ENDCHAR
STARTCHAR c2221
ENCODING 8737
SWIDTH 500 0
DWIDTH 24 0
BBX 24 14 0 0
BITMAP
fffffe
7fffff
000030
000030
08fff0
0c7ff0
0c2030
0c1430
041e70
031cf0
01fbf0
007730
000e30
000410
ENDCHAR
STARTCHAR c2222
ENCODING 8738
SWIDTH 500 0
DWIDTH 24 0
BBX 24 14 0 0
BITMAP
fffffe
7fffff
061800
061800
061f80
021fc0
031c60
01f860
04f860
0e78e0
04f8c0
01d8c0
039840
030800
ENDCHAR
STARTCHAR c2223
ENCODING 8739
SWIDTH 500 0
DWIDTH 24 0
BBX 24 14 0 0
BITMAP
fffffe
7fffff
001800
079800
0fdf80
043fc0
003c60
007860
01f860
07d860
0318e0
0018c0
001840
000800
ENDCHAR
STARTCHAR c2224
ENCODING 8740
SWIDTH 500 0
DWIDTH 24 0
BBX 24 14 0 0
BITMAP
fffffe
7fffff
010300
018300
018300
018300
078300
078300
038700
038f00
001f00
003b00
007300
002100
ENDCHAR
STARTCHAR c2225
ENCODING 8741
SWIDTH 500 0
DWIDTH 24 0
BBX 24 14 0 0
BITMAP
fffffe
7fffff
000300
00f300
01fb00
008700
000700
000f00
003f00
00fb00
006300
000300
000300
000100
ENDCHAR
STARTCHAR c2226
ENCODING 8742
SWIDTH 500 0
DWIDTH 24 0
BBX 24 14 0 0
BITMAP
07ffe0
03fff0
018600
018600
018600
008600
00c600
007e00
003e00
003e00
00f600
01c600
018600
000200
ENDCHAR
STARTCHAR c2227
ENCODING 8743
SWIDTH 500 0
DWIDTH 24 0
BBX 24 14 0 0
BITMAP
7ffff8
3ffffc
061800
061800
061f80
021fc0
031c60
01f860
00f860
00f8e0
03d8c0
0718c0
061840
000800
ENDCHAR
STARTCHAR c2228
ENCODING 8744
SWIDTH 500 0
DWIDTH 24 0
BBX 24 14 0 0
BITMAP
7ffff8
3ffffc
033180
033180
01f180
03fd80
078f80
020780
001f80
003d80
007180
002180
000180
000080
ENDCHAR
STARTCHAR c2229
ENCODING 8745
SWIDTH 500 0
DWIDTH 24 0
BBX 24 14 0 0
BITMAP
03dff8
07effc
063180
063180
03f180
01f180
07bf80
070780
001f80
007d80
00f180
004180
000180
000080
ENDCHAR
STARTCHAR c222a
ENCODING 8746
SWIDTH 500 0
DWIDTH 24 0
BBX 24 27 0 -5
BITMAP
000000
000000
000000
000000
000000
000000
000000
000000
000000
000000
000000
000000
000000
000000
000000
000000
000000
000000
000000
000000
000000
000000
000000
000000
000000
000000
000000
ENDCHAR
STARTCHAR c222b
ENCODING 8747
SWIDTH 500 0
DWIDTH 24 0
BBX 24 27 0 -5
BITMAP
000000
000000
000000
000000
000000
000000
000000
000000
000000
000000
000000
000000
000000
000000
000000
000000
000000
000000
000000
000000
000000
000000
000000
000000
000000
000000
000000
ENDCHAR
STARTCHAR c222c
ENCODING 8748
SWIDTH 500 0
DWIDTH 24 0
BBX 24 14 0 0
BITMAP
7ffffc
3ffffe
006000
006000
017c00
01fe00
01e300
00c300
00c700
004600
002000
001000
000800
000400
ENDCHAR
STARTCHAR c222d
ENCODING 8749
SWIDTH 500 0
DWIDTH 24 0
BBX 24 14 0 0
BITMAP
fffffe
7fffff
007000
006000
016000
01fe00
01ff00
00f180
00fcc0
005e40
002020
001000
000c00
000600
ENDCHAR
STARTCHAR c222e
ENCODING 8750
SWIDTH 500 0
DWIDTH 24 0
BBX 24 15 0 -1
BITMAP
7ffffc
3ffffe
006000
006000
017c00
01fe00
01e300
00c300
00c700
004600
002000
001000
008800
01c400
008000
ENDCHAR
STARTCHAR c222f
ENCODING 8751
SWIDTH 500 0
DWIDTH 24 0
BBX 24 15 0 -1
BITMAP
fffffe
7fffff
00e000
00c000
02c000
03fc00
03fe00
01e300
01f980
00bc80
004040
002000
011800
038c00
010000
ENDCHAR
STARTCHAR c2230
ENCODING 8752
SWIDTH 500 0
DWIDTH 24 0
BBX 24 27 0 -5
BITMAP
000000
000000
000000
000000
000000
000000
000000
000000
000000
000000
000000
000000
000000
000000
000000
000000
000000
000000
000000
000000
000000
000000
000000
000000
000000
000000
000000
ENDCHAR
STARTCHAR c2231
ENCODING 8753
SWIDTH 500 0
DWIDTH 24 0
BBX 24 27 0 -5
BITMAP
000000
000000
000000
000000
000000
000000
000000
000000
000000
000000
000000
000000
000000
000000
000000
000000
000000
000000
000000
000000
000000
000000
000000
000000
000000
000000
000000
ENDCHAR
STARTCHAR c2232
ENCODING 8754
SWIDTH 500 0
DWIDTH 24 0
BBX 24 27 0 -5
BITMAP
000000
000000
000000
000000
000000
000000
000000
000000
000000
000000
000000
000000
000000
000000
000000
000000
000000
000000
000000
000000
000000
000000
000000
000000
000000
000000
000000
ENDCHAR
STARTCHAR c2233
ENCODING 8755
SWIDTH 500 0
DWIDTH 24 0
BBX 24 14 0 0
BITMAP
fffffe
7fffff
000600
007e00
00ffc0
00c7e0
00c610
00c600
007e00
003e00
000600
000600
000600
000200
ENDCHAR
STARTCHAR c2234
ENCODING 8756
SWIDTH 500 0
DWIDTH 24 0
BBX 24 14 0 0
BITMAP
fffffe
7fffff
001800
003800
00b7c0
00ffe0
00fc30
006c30
0067f0
0023e0
001000
000800
000400
000200
ENDCHAR
STARTCHAR c2235
ENCODING 8757
SWIDTH 500 0
DWIDTH 24 0
BBX 24 10 0 4
BITMAP
fffffe
7fffff
000c00
000c00
000c00
000c00
003c00
003c00
001c00
001c00
ENDCHAR
STARTCHAR c2236
ENCODING 8758
SWIDTH 500 0
DWIDTH 24 0
BBX 24 10 0 4
BITMAP
fffffe
7fffff
003000
001000
000f00
001f80
001820
0018f0
000fe0
000780
ENDCHAR
STARTCHAR c2237
ENCODING 8759
SWIDTH 500 0
DWIDTH 24 0
BBX 24 27 0 -5
BITMAP
000000
000000
000000
000000
000000
000000
000000
000000
000000
000000
000000
000000
000000
000000
000000
000000
000000
000000
000000
000000
000000
000000
000000
000000
000000
000000
000000
ENDCHAR
STARTCHAR c2238
ENCODING 8760
SWIDTH 500 0
DWIDTH 24 0
BBX 24 10 0 4
BITMAP
fffffe
7fffff
000000
000000
007f80
003fc0
001800
001820
000ff0
0007e0
ENDCHAR
STARTCHAR c2239
ENCODING 8761
SWIDTH 500 0
DWIDTH 24 0
BBX 24 27 0 -5
BITMAP
000000
000000
000000
000000
000000
000000
000000
000000
000000
000000
000000
000000
000000
000000
000000
000000
000000
000000
000000
000000
000000
000000
000000
000000
000000
000000
000000
ENDCHAR
STARTCHAR c223a
ENCODING 8762
SWIDTH 500 0
DWIDTH 24 0
BBX 24 12 0 2
BITMAP
fffffe
7fffff
000000
000000
008fe0
00c7f0
00c200
004300
006300
002300
001f00
000e00
ENDCHAR
STARTCHAR c223b
ENCODING 8763
SWIDTH 500 0
DWIDTH 24 0
BBX 24 15 0 -1
BITMAP
fffffe
7fffff
000600
007e00
00fe00
00c000
007c70
003ff8
0003c0
007700
00fe00
007c00
000200
000300
000100
ENDCHAR
STARTCHAR c223c
ENCODING 8764
SWIDTH 500 0
DWIDTH 24 0
BBX 24 12 0 2
BITMAP
fffffe
7fffff
000000
002000
003800
000c00
0007e0
0047f0
006600
006e00
003c00
001800
ENDCHAR
STARTCHAR c223d
ENCODING 8765
SWIDTH 500 0
DWIDTH 24 0
BBX 24 27 0 -5
BITMAP
000000
000000
000000
000000
000000
000000
000000
000000
000000
000000
000000
000000
000000
000000
000000
000000
000000
000000
000000
000000
000000
000000
000000
000000
000000
000000
000000
ENDCHAR
STARTCHAR c223e
ENCODING 8766
SWIDTH 500 0
DWIDTH 24 0
BBX 24 27 0 -5
BITMAP
000000
000000
000000
000000
000000
000000
000000
000000
000000
000000
000000
000000
000000
000000
000000
000000
000000
000000
000000
000000
000000
000000
000000
000000
000000
000000
000000
ENDCHAR
STARTCHAR c223f
ENCODING 8767
SWIDTH 500 0
DWIDTH 24 0
BBX 24 27 0 -5
BITMAP
000000
000000
000000
000000
000000
000000
000000
000000
000000
000000
000000
000000
000000
000000
000000
000000
000000
000000
000000
000000
000000
000000
000000
000000
000000
000000
000000
ENDCHAR
STARTCHAR c2240
ENCODING 8768
SWIDTH 500 0
DWIDTH 24 0
BBX 24 27 0 -5
BITMAP
000000
000000
000000
000000
000000
000000
000000
000000
000000
000000
000000
000000
000000
000000
000000
000000
000000
000000
000000
000000
000000
000000
000000
000000
000000
000000
000000
ENDCHAR
STARTCHAR c2241
ENCODING 8769
SWIDTH 500 0
DWIDTH 24 0
BBX 24 10 0 4
BITMAP
fffffe
7fffff
000660
000660
000660
000660
000660
000660
0003e0
0001c0
ENDCHAR
STARTCHAR c2242
ENCODING 8770
SWIDTH 500 0
DWIDTH 24 0
BBX 24 14 0 0
BITMAP
fffffe
7fffff
000000
000000
000fe0
001ff0
001800
001800
001800
000800
000c00
000400
000200
000100
ENDCHAR
STARTCHAR c2243
ENCODING 8771
SWIDTH 500 0
DWIDTH 24 0
BBX 24 10 0 4
BITMAP
0018fe
003c7f
003600
003600
001e00
003e20
003830
001070
000fe0
0007c0
ENDCHAR
STARTCHAR c2244
ENCODING 8772
SWIDTH 500 0
DWIDTH 24 0
BBX 24 27 0 -5
BITMAP
000000
000000
000000
000000
000000
000000
000000
000000
000000
000000
000000
000000
000000
000000
000000
000000
000000
000000
000000
000000
000000
000000
000000
000000
000000
000000
000000
ENDCHAR
STARTCHAR c2245
ENCODING 8773
SWIDTH 500 0
DWIDTH 24 0
BBX 24 10 0 4
BITMAP
0010fe
00387f
003000
001000
000f00
001f80
001820
0018f0
000fe0
000780
ENDCHAR
STARTCHAR c2246
ENCODING 8774
SWIDTH 500 0
DWIDTH 24 0
BBX 24 9 0 5
BITMAP
fffffe
7fffff
000000
000000
000000
000fe0
001ff0
000e00
000400
ENDCHAR
STARTCHAR c2247
ENCODING 8775
SWIDTH 500 0
DWIDTH 24 0
BBX 24 15 0 -1
BITMAP
fffffe
7fffff
000000
000000
000000
000fe0
001ff0
000e00
000400
000000
000000
000000
000200
000700
000200
ENDCHAR
STARTCHAR c2248
ENCODING 8776
SWIDTH 500 0
DWIDTH 24 0
BBX 24 9 0 5
BITMAP
fffffe
7fffff
000c00
000c00
000c00
000400
000620
0003f0
0001e0
ENDCHAR
STARTCHAR c2249
ENCODING 8777
SWIDTH 500 0
DWIDTH 24 0
BBX 24 14 0 0
BITMAP
fffffe
7fffff
018600
018600
0187c0
0087e0
00c630
007e10
003e00
000600
000600
000600
000600
000200
ENDCHAR
STARTCHAR c224a
ENCODING 8778
SWIDTH 500 0
DWIDTH 24 0
BBX 24 10 0 4
BITMAP
fffffe
7fffff
000000
000000
0007c0
000fe0
000d30
000cb0
0007f0
0003e0
ENDCHAR
STARTCHAR c224b
ENCODING 8779
SWIDTH 500 0
DWIDTH 24 0
BBX 24 10 0 4
BITMAP
0060fe
00307f
000800
000c00
000c00
000c00
003fe0
003ff0
001c00
000c00
ENDCHAR
STARTCHAR c224c
ENCODING 8780
SWIDTH 500 0
DWIDTH 24 0
BBX 24 10 0 4
BITMAP
fffffe
7fffff
001800
001800
001800
001800
007fe0
007ff0
007800
003800
ENDCHAR
STARTCHAR c224d
ENCODING 8781
SWIDTH 500 0
DWIDTH 24 0
BBX 24 10 0 4
BITMAP
fffffe
7fffff
000600
000600
000e00
003c20
003830
001070
000fe0
0007c0
ENDCHAR
STARTCHAR c224e
ENCODING 8782
SWIDTH 500 0
DWIDTH 24 0
BBX 24 17 0 -3
BITMAP
fffffe
7fffff
000600
000600
000e00
003c20
003830
001070
000fe0
0007c0
000000
000000
000000
000000
000100
000380
000100
ENDCHAR
STARTCHAR c224f
ENCODING 8783
SWIDTH 500 0
DWIDTH 24 0
BBX 24 27 0 -5
BITMAP
000000
000000
000000
000000
000000
000000
000000
000000
000000
000000
000000
000000
000000
000000
000000
000000
000000
000000
000000
000000
000000
000000
000000
000000
000000
000000
000000
ENDCHAR
STARTCHAR c2250
ENCODING 8784
SWIDTH 500 0
DWIDTH 24 0
BBX 24 27 0 -5
BITMAP
000000
000000
000000
000000
000000
000000
000000
000000
000000
000000
000000
000000
000000
000000
000000
000000
000000
000000
000000
000000
000000
000000
000000
000000
000000
000000
000000
ENDCHAR
STARTCHAR c2251
ENCODING 8785
SWIDTH 500 0
DWIDTH 24 0
BBX 24 14 0 0
BITMAP
fffffe
7fffff
000000
000000
0078e0
00fdf0
00c380
00c300
00c100
004000
006000
002000
001000
000800
ENDCHAR
STARTCHAR c2252
ENCODING 8786
SWIDTH 500 0
DWIDTH 24 0
BBX 24 13 0 1
BITMAP
fffffe
7fffff
000000
000000
038f00
07df80
0e3840
0c3860
0c3060
0c7060
0470e0
03ffc0
01c780
ENDCHAR
STARTCHAR c2253
ENCODING 8787
SWIDTH 500 0
DWIDTH 24 0
BBX 24 17 0 -3
BITMAP
fffffe
7fffff
000000
000000
038f00
07df80
0e3840
0c3860
0c3060
0c7060
0470e0
03ffc0
01c780
000000
001000
003800
001000
ENDCHAR
STARTCHAR c2254
ENCODING 8788
SWIDTH 500 0
DWIDTH 24 0
BBX 24 10 0 4
BITMAP
fffffe
7fffff
000000
000000
0007c0
000fe0
000c30
000c30
0007f0
0003e0
ENDCHAR
STARTCHAR c2255
ENCODING 8789
SWIDTH 500 0
DWIDTH 24 0
BBX 24 14 0 0
BITMAP
fffffe
7fffff
000620
000630
000630
000230
0001f0
0000f0
001de0
001fc0
000f80
000040
000060
000020
ENDCHAR
STARTCHAR c2256
ENCODING 8790
SWIDTH 500 0
DWIDTH 24 0
BBX 24 9 0 5
BITMAP
fffffe
7fffff
000e00
000f00
000d80
0004c0
000660
0003f0
0001e0
ENDCHAR
STARTCHAR c2257
ENCODING 8791
SWIDTH 500 0
DWIDTH 24 0
BBX 24 14 0 0
BITMAP
fffffe
7fffff
000c00
001c00
005800
007860
007ff0
0037c0
003000
001000
001800
000800
000400
000200
ENDCHAR
STARTCHAR c2258
ENCODING 8792
SWIDTH 500 0
DWIDTH 24 0
BBX 24 27 0 -5
BITMAP
000000
000000
000000
000000
000000
000000
000000
000000
000000
000000
000000
000000
000000
000000
000000
000000
000000
000000
000000
000000
000000
000000
000000
000000
000000
000000
000000
ENDCHAR
STARTCHAR c2259
ENCODING 8793
SWIDTH 500 0
DWIDTH 24 0
BBX 24 27 0 -5
BITMAP
000000
000000
000000
000000
000000
000000
000000
000000
000000
000000
000000
000000
000000
000000
000000
000000
000000
000000
000000
000000
000000
000000
000000
000000
000000
000000
000000
ENDCHAR
STARTCHAR c225a
ENCODING 8794
SWIDTH 500 0
DWIDTH 24 0
BBX 24 27 0 -5
BITMAP
000000
000000
000000
000000
000000
000000
000000
000000
000000
000000
000000
000000
000000
000000
000000
000000
000000
000000
000000
000000
000000
000000
000000
000000
000000
000000
000000
ENDCHAR
STARTCHAR c225b
ENCODING 8795
SWIDTH 500 0
DWIDTH 24 0
BBX 24 27 0 -5
BITMAP
000000
000000
000000
000000
000000
000000
000000
000000
000000
000000
000000
000000
000000
000000
000000
000000
000000
000000
000000
000000
000000
000000
000000
000000
000000
000000
000000
ENDCHAR
STARTCHAR c225c
ENCODING 8796
SWIDTH 500 0
DWIDTH 24 0
BBX 24 27 0 -5
BITMAP
000000
000000
000000
000000
000000
000000
000000
000000
000000
000000
000000
000000
000000
000000
000000
000000
000000
000000
000000
000000
000000
000000
000000
000000
000000
000000
000000
ENDCHAR
STARTCHAR c225d
ENCODING 8797
SWIDTH 500 0
DWIDTH 24 0
BBX 24 14 0 0
BITMAP
7ffffc
3ffffe
000300
018300
01c300
006300
006300
006300
00ef00
00ff00
003b00
000300
000300
000100
ENDCHAR
STARTCHAR c225e
ENCODING 8798
SWIDTH 500 0
DWIDTH 24 0
BBX 24 27 0 -5
BITMAP
000000
000000
000000
000000
000000
000000
000000
000000
000000
000000
000000
000000
000000
000000
000000
000000
000000
000000
000000
000000
000000
000000
000000
000000
000000
000000
000000
ENDCHAR
STARTCHAR c225f
ENCODING 8799
SWIDTH 500 0
DWIDTH 24 0
BBX 24 27 0 -5
BITMAP
000000
000000
000000
000000
000000
000000
000000
000000
000000
000000
000000
000000
000000
000000
000000
000000
000000
000000
000000
000000
000000
000000
000000
000000
000000
000000
000000
ENDCHAR
STARTCHAR c2260
ENCODING 8800
SWIDTH 500 0
DWIDTH 24 0
BBX 24 11 0 3
BITMAP
fffffe
7fffff
002000
003000
003000
003000
00f020
00f070
0070e0
0071c0
000080
ENDCHAR
STARTCHAR c2261
ENCODING 8801
SWIDTH 500 0
DWIDTH 24 0
BBX 24 14 0 0
BITMAP
fffffe
7fffff
003000
001e00
001f00
001820
001870
000fe0
0007c0
000000
000fe0
001ff0
000e00
000400
ENDCHAR
STARTCHAR c2262
ENCODING 8802
SWIDTH 500 0
DWIDTH 24 0
BBX 24 14 0 0
BITMAP
fffffe
7fffff
007000
003800
000c20
000ff0
007fe0
003820
007e30
003f30
000c70
000ce0
0007c0
000380
ENDCHAR
STARTCHAR c2263
ENCODING 8803
SWIDTH 500 0
DWIDTH 24 0
BBX 24 14 0 0
BITMAP
fffffe
7fffff
000000
000000
00ffe0
007ff0
003000
003000
003000
001000
001800
000800
000600
000300
ENDCHAR
STARTCHAR c2264
ENCODING 8804
SWIDTH 500 0
DWIDTH 24 0
BBX 24 11 0 3
BITMAP
fffffe
7fffff
000000
000f00
001f80
000840
000020
0000f0
0003e0
000f80
000600
ENDCHAR
STARTCHAR c2265
ENCODING 8805
SWIDTH 500 0
DWIDTH 24 0
BBX 24 14 0 -1
BITMAP
001000
003800
003000
001e00
001f00
001820
001870
000fe0
0007c0
000000
000fe0
001ff0
000e00
000400
ENDCHAR
STARTCHAR c2266
ENCODING 8806
SWIDTH 500 0
DWIDTH 24 0
BBX 24 14 0 0
BITMAP
001000
003800
003000
001000
000f00
001f80
001820
0018f0
000ff0
0007e0
000f80
003e00
007800
002000
ENDCHAR
STARTCHAR c2267
ENCODING 8807
SWIDTH 500 0
DWIDTH 24 0
BBX 24 14 0 0
BITMAP
fffffe
7fffff
001800
001800
000800
000600
0003e0
000ff0
001e00
001800
000800
000c00
000600
000300
ENDCHAR
STARTCHAR c2268
ENCODING 8808
SWIDTH 500 0
DWIDTH 24 0
BBX 24 14 0 0
BITMAP
fffffe
7fffff
006600
006600
003e00
00ff80
00f1e0
000030
003fb0
001ff0
000630
000670
0003e0
0001c0
ENDCHAR
STARTCHAR c2269
ENCODING 8809
SWIDTH 500 0
DWIDTH 24 0
BBX 24 12 0 2
BITMAP
fffffe
7fffff
006600
006600
003e00
007f80
00f1e0
0040f0
0003e0
000780
000e00
000400
ENDCHAR
STARTCHAR c226a
ENCODING 8810
SWIDTH 500 0
DWIDTH 24 0
BBX 24 12 0 2
BITMAP
fffffe
7fffff
006600
006600
003e00
00ff80
00f1e0
0007f0
000f30
000c70
0007e0
0003c0
ENDCHAR
STARTCHAR c226b
ENCODING 8811
SWIDTH 500 0
DWIDTH 24 0
BBX 24 13 0 1
BITMAP
7ffffc
3ffffe
000000
01e000
01f800
01cc00
00c700
001f00
003c00
007000
007000
007000
003000
ENDCHAR
STARTCHAR c226c
ENCODING 8812
SWIDTH 500 0
DWIDTH 24 0
BBX 24 14 0 0
BITMAP
0038fe
007c7f
006600
006600
006e20
003cf0
007fe0
00ef80
00c200
00c700
004380
003f00
001f00
000100
ENDCHAR
STARTCHAR c226d
ENCODING 8813
SWIDTH 500 0
DWIDTH 24 0
BBX 24 16 0 -2
BITMAP
fffffe
7fffff
000000
000000
000f00
001f80
001840
000820
000410
000200
000300
003b00
003f00
001e00
000100
000080
ENDCHAR
STARTCHAR c226e
ENCODING 8814
SWIDTH 500 0
DWIDTH 24 0
BBX 24 27 0 -5
BITMAP
000000
000000
000000
000000
000000
000000
000000
000000
000000
000000
000000
000000
000000
000000
000000
000000
000000
000000
000000
000000
000000
000000
000000
000000
000000
000000
000000
ENDCHAR
STARTCHAR c226f
ENCODING 8815
SWIDTH 500 0
DWIDTH 24 0
BBX 24 27 0 -5
BITMAP
000000
000000
000000
000000
000000
000000
000000
000000
000000
000000
000000
000000
000000
000000
000000
000000
000000
000000
000000
000000
000000
000000
000000
000000
000000
000000
000000
ENDCHAR
STARTCHAR c2270
ENCODING 8816
SWIDTH 500 0
DWIDTH 24 0
BBX 24 6 0 14
BITMAP
000700
000f80
000c00
000400
000600
000300
ENDCHAR
STARTCHAR c2271
ENCODING 8817
SWIDTH 500 0
DWIDTH 24 0
BBX 24 7 0 0
BITMAP
000200
000700
000e00
003c00
007000
00e000
004000
ENDCHAR
STARTCHAR c2272
ENCODING 8818
SWIDTH 500 0
DWIDTH 24 0
BBX 24 6 0 -3
BITMAP
001800
003c00
007600
006200
00e000
004000
ENDCHAR
STARTCHAR c2273
ENCODING 8819
SWIDTH 500 0
DWIDTH 24 0
BBX 24 14 0 0
BITMAP
fffffe
7fffff
000600
007e00
00ffc0
00c7e0
00c610
00c600
007e00
003e00
000600
002600
007600
002200
ENDCHAR
STARTCHAR c2274
ENCODING 8820
SWIDTH 500 0
DWIDTH 24 0
BBX 24 14 0 0
BITMAP
fffffe
7fffff
003800
003000
00b7c0
00ffe0
00fc30
006c30
0067f0
0023e0
003000
001100
001b80
000900
ENDCHAR
STARTCHAR c2275
ENCODING 8821
SWIDTH 500 0
DWIDTH 24 0
BBX 24 14 0 0
BITMAP
fffffe
7fffff
000c00
000c00
000c00
000c00
003c00
003c00
001c00
001c00
000000
000100
000380
000100
ENDCHAR
STARTCHAR c2276
ENCODING 8822
SWIDTH 500 0
DWIDTH 24 0
BBX 24 27 0 -5
BITMAP
000000
000000
000000
000000
000000
000000
000000
000000
000000
000000
000000
000000
000000
000000
000000
000000
000000
000000
000000
000000
000000
000000
000000
000000
000000
000000
000000
ENDCHAR
STARTCHAR c2277
ENCODING 8823
SWIDTH 500 0
DWIDTH 24 0
BBX 24 27 0 -5
BITMAP
000000
000000
000000
000000
000000
000000
000000
000000
000000
000000
000000
000000
000000
000000
000000
000000
000000
000000
000000
000000
000000
000000
000000
000000
000000
000000
000000
ENDCHAR
STARTCHAR c2278
ENCODING 8824
SWIDTH 500 0
DWIDTH 24 0
BBX 24 27 0 -5
BITMAP
000000
000000
000000
000000
000000
000000
000000
000000
000000
000000
000000
000000
000000
000000
000000
000000
000000
000000
000000
000000
000000
000000
000000
000000
000000
000000
000000
ENDCHAR
STARTCHAR c2279
ENCODING 8825
SWIDTH 500 0
DWIDTH 24 0
BBX 24 14 0 0
BITMAP
fffffe
7fffff
018600
018600
0187c0
0087e0
00c630
007e10
003e00
000600
000600
002600
007600
002200
ENDCHAR
STARTCHAR c227a
ENCODING 8826
SWIDTH 500 0
DWIDTH 24 0
BBX 24 14 0 0
BITMAP
fffffe
7fffff
000000
000000
008fe0
00c7f0
00c200
004300
006300
002300
001f00
000e80
0001c0
000080
ENDCHAR
STARTCHAR c227b
ENCODING 8827
SWIDTH 500 0
DWIDTH 24 0
BBX 24 27 0 -5
BITMAP
000000
000000
000000
000000
000000
000000
000000
000000
000000
000000
000000
000000
000000
000000
000000
000000
000000
000000
000000
000000
000000
000000
000000
000000
000000
000000
000000
ENDCHAR
STARTCHAR c227c
ENCODING 8828
SWIDTH 500 0
DWIDTH 24 0
BBX 24 27 0 -5
BITMAP
000000
000000
000000
000000
000000
000000
000000
000000
000000
000000
000000
000000
000000
000000
000000
000000
000000
000000
000000
000000
000000
000000
000000
000000
000000
000000
000000
ENDCHAR
STARTCHAR c227d
ENCODING 8829
SWIDTH 500 0
DWIDTH 24 0
BBX 24 27 0 -5
BITMAP
000000
000000
000000
000000
000000
000000
000000
000000
000000
000000
000000
000000
000000
000000
000000
000000
000000
000000
000000
000000
000000
000000
000000
000000
000000
000000
000000
ENDCHAR
STARTCHAR c227e
ENCODING 8830
SWIDTH 500 0
DWIDTH 24 0
BBX 24 27 0 -5
BITMAP
000000
000000
000000
000000
000000
000000
000000
000000
000000
000000
000000
000000
000000
000000
000000
000000
000000
000000
000000
000000
000000
000000
000000
000000
000000
000000
000000
ENDCHAR
STARTCHAR c2321
ENCODING 8993
SWIDTH 500 0
DWIDTH 24 0
BBX 24 16 0 0
BITMAP
000100
000380
001110
000818
1f8438
1fc3f0
0061e0
006000
00e000
07e3c0
03bfe0
001e10
101878
0c18f8
07f8c0
01f040
ENDCHAR
STARTCHAR c2322
ENCODING 8994
SWIDTH 500 0
DWIDTH 24 0
BBX 24 27 0 -5
BITMAP
000000
000000
000000
000000
000000
000000
000000
000000
000000
000000
000000
000000
000000
000000
000000
000000
000000
000000
000000
000000
000000
000000
000000
000000
000000
000000
000000
ENDCHAR
STARTCHAR c2323
ENCODING 8995
SWIDTH 500 0
DWIDTH 24 0
BBX 24 27 0 -5
BITMAP
000000
000000
000000
000000
000000
000000
000000
000000
000000
000000
000000
000000
000000
000000
000000
000000
000000
000000
000000
000000
000000
000000
000000
000000
000000
000000
000000
ENDCHAR
STARTCHAR c2324
ENCODING 8996
SWIDTH 500 0
DWIDTH 24 0
BBX 24 27 0 -5
BITMAP
000000
000000
000000
000000
000000
000000
000000
000000
000000
000000
000000
000000
000000
000000
000000
000000
000000
000000
000000
000000
000000
000000
000000
000000
000000
000000
000000
ENDCHAR
STARTCHAR c2325
ENCODING 8997
SWIDTH 500 0
DWIDTH 24 0
BBX 24 27 0 -5
BITMAP
000000
000000
000000
000000
000000
000000
000000
000000
000000
000000
000000
000000
000000
000000
000000
000000
000000
000000
000000
000000
000000
000000
000000
000000
000000
000000
000000
ENDCHAR
STARTCHAR c2326
ENCODING 8998
SWIDTH 500 0
DWIDTH 24 0
BBX 24 16 0 -2
BITMAP
1ffff8
0ffffc
000300
000300
078f00
0fdf80
0c3840
0c3060
0c1060
0401e0
0607c0
020f00
010c00
008cc0
0007c0
000380
ENDCHAR
STARTCHAR c2327
ENCODING 8999
SWIDTH 500 0
DWIDTH 24 0
BBX 24 19 0 -5
BITMAP
fffffe
7fffff
000300
000300
078f00
0fdf80
0c3840
0c3060
0c1060
0401e0
0607c0
020f00
010c00
008cc0
0007c0
000780
000600
0003e0
0001e0
ENDCHAR
STARTCHAR c2328
ENCODING 9000
SWIDTH 500 0
DWIDTH 24 0
BBX 24 27 0 -5
BITMAP
000000
000000
000000
000000
000000
000000
000000
000000
000000
000000
000000
000000
000000
000000
000000
000000
000000
000000
000000
000000
000000
000000
000000
000000
000000
000000
000000
ENDCHAR
STARTCHAR c2329
ENCODING 9001
SWIDTH 500 0
DWIDTH 24 0
BBX 24 27 0 -5
BITMAP
000000
000000
000000
000000
000000
000000
000000
000000
000000
000000
000000
000000
000000
000000
000000
000000
000000
000000
000000
000000
000000
000000
000000
000000
000000
000000
000000
ENDCHAR
STARTCHAR c232a
ENCODING 9002
SWIDTH 500 0
DWIDTH 24 0
BBX 24 18 0 -4
BITMAP
fffffe
7fffff
003000
0f3000
1fb180
0877c0
003fc0
00fcc0
03f1c0
0fb3e0
063300
003300
0031f0
0011f0
000180
000190
0000f8
000070
ENDCHAR
STARTCHAR c232b
ENCODING 9003
SWIDTH 500 0
DWIDTH 24 0
BBX 24 27 0 -5
BITMAP
000000
000000
000000
000000
000000
000000
000000
000000
000000
000000
000000
000000
000000
000000
000000
000000
000000
000000
000000
000000
000000
000000
000000
000000
000000
000000
000000
ENDCHAR
STARTCHAR c232c
ENCODING 9004
SWIDTH 500 0
DWIDTH 24 0
BBX 24 27 0 -5
BITMAP
000000
000000
000000
000000
000000
000000
000000
000000
000000
000000
000000
000000
000000
000000
000000
000000
000000
000000
000000
000000
000000
000000
000000
000000
000000
000000
000000
ENDCHAR
STARTCHAR c232d
ENCODING 9005
SWIDTH 500 0
DWIDTH 24 0
BBX 24 27 0 -5
BITMAP
000000
000000
000000
000000
000000
000000
000000
000000
000000
000000
000000
000000
000000
000000
000000
000000
000000
000000
000000
000000
000000
000000
000000
000000
000000
000000
000000
ENDCHAR
STARTCHAR c232e
ENCODING 9006
SWIDTH 500 0
DWIDTH 24 0
BBX 24 27 0 -5
BITMAP
000000
000000
000000
000000
000000
000000
000000
000000
000000
000000
000000
000000
000000
000000
000000
000000
000000
000000
000000
000000
000000
000000
000000
000000
000000
000000
000000
ENDCHAR
STARTCHAR c232f
ENCODING 9007
SWIDTH 500 0
DWIDTH 24 0
BBX 24 27 0 -5
BITMAP
000000
000000
000000
000000
000000
000000
000000
000000
000000
000000
000000
000000
000000
000000
000000
000000
000000
000000
000000
000000
000000
000000
000000
000000
000000
000000
000000
ENDCHAR
STARTCHAR c2330
ENCODING 9008
SWIDTH 500 0
DWIDTH 24 0
BBX 24 27 0 -5
BITMAP
000000
000000
000000
000000
000000
000000
000000
000000
000000
000000
000000
000000
000000
000000
000000
000000
000000
000000
000000
000000
000000
000000
000000
000000
000000
000000
000000
ENDCHAR
STARTCHAR c2331
ENCODING 9009
SWIDTH 500 0
DWIDTH 24 0
BBX 24 27 0 -5
BITMAP
000000
000000
000000
000000
000000
000000
000000
000000
000000
000000
000000
000000
000000
000000
000000
000000
000000
000000
000000
000000
000000
000000
000000
000000
000000
000000
000000
ENDCHAR
STARTCHAR c2332
ENCODING 9010
SWIDTH 500 0
DWIDTH 24 0
BBX 24 27 0 -5
BITMAP
000000
000000
000000
000000
000000
000000
000000
000000
000000
000000
000000
000000
000000
000000
000000
000000
000000
000000
000000
000000
000000
000000
000000
000000
000000
000000
000000
ENDCHAR
STARTCHAR c2333
ENCODING 9011
SWIDTH 500 0
DWIDTH 24 0
BBX 24 14 0 0
BITMAP
7ffffc
3ffffe
003000
03f000
07ff00
063f80
0638c0
0630c0
03f0c0
01f0c0
0031c0
013180
03b080
011000
ENDCHAR
STARTCHAR c2334
ENCODING 9012
SWIDTH 500 0
DWIDTH 24 0
BBX 24 14 0 0
BITMAP
fffffe
7fffff
00e0c0
00c0c0
02dfc0
03ffc0
03f0c0
01b0c0
019fc0
008fc0
00c0c0
0044c0
006ec0
002440
ENDCHAR
STARTCHAR c2335
ENCODING 9013
SWIDTH 500 0
DWIDTH 24 0
BBX 24 14 0 0
BITMAP
fffffe
7fffff
008300
00c300
00c300
00c300
03c300
03c300
01c300
01c300
000300
001300
003b00
001100
ENDCHAR
STARTCHAR c2336
ENCODING 9014
SWIDTH 500 0
DWIDTH 24 0
BBX 24 27 0 -5
BITMAP
000000
000000
000000
000000
000000
000000
000000
000000
000000
000000
000000
000000
000000
000000
000000
000000
000000
000000
000000
000000
000000
000000
000000
000000
000000
000000
000000
ENDCHAR
STARTCHAR c2337
ENCODING 9015
SWIDTH 500 0
DWIDTH 24 0
BBX 24 27 0 -5
BITMAP
000000
000000
000000
000000
000000
000000
000000
000000
000000
000000
000000
000000
000000
000000
000000
000000
000000
000000
000000
000000
000000
000000
000000
000000
000000
000000
000000
ENDCHAR
STARTCHAR c2338
ENCODING 9016
SWIDTH 500 0
DWIDTH 24 0
BBX 24 27 0 -5
BITMAP
000000
000000
000000
000000
000000
000000
000000
000000
000000
000000
000000
000000
000000
000000
000000
000000
000000
000000
000000
000000
000000
000000
000000
000000
000000
000000
000000
ENDCHAR
STARTCHAR c2339
ENCODING 9017
SWIDTH 500 0
DWIDTH 24 0
BBX 24 27 0 -5
BITMAP
000000
000000
000000
000000
000000
000000
000000
000000
000000
000000
000000
000000
000000
000000
000000
000000
000000
000000
000000
000000
000000
000000
000000
000000
000000
000000
000000
ENDCHAR
STARTCHAR c233a
ENCODING 9018
SWIDTH 500 0
DWIDTH 24 0
BBX 24 14 0 0
BITMAP
fffffe
7fffff
0000c0
0000c0
047fc0
063fc0
0218c0
0308c0
010cc0
008cc0
007cc0
003ac0
0007c0
000240
ENDCHAR
STARTCHAR c233b
ENCODING 9019
SWIDTH 500 0
DWIDTH 24 0
BBX 24 27 0 -5
BITMAP
000000
000000
000000
000000
000000
000000
000000
000000
000000
000000
000000
000000
000000
000000
000000
000000
000000
000000
000000
000000
000000
000000
000000
000000
000000
000000
000000
ENDCHAR
STARTCHAR c233c
ENCODING 9020
SWIDTH 500 0
DWIDTH 24 0
BBX 24 27 0 -5
BITMAP
000000
000000
000000
000000
000000
000000
000000
000000
000000
000000
000000
000000
000000
000000
000000
000000
000000
000000
000000
000000
000000
000000
000000
000000
000000
000000
000000
ENDCHAR
STARTCHAR c233d
ENCODING 9021
SWIDTH 500 0
DWIDTH 24 0
BBX 24 27 0 -5
BITMAP
000000
000000
000000
000000
000000
000000
000000
000000
000000
000000
000000
000000
000000
000000
000000
000000
000000
000000
000000
000000
000000
000000
000000
000000
000000
000000
000000
ENDCHAR
STARTCHAR c233e
ENCODING 9022
SWIDTH 500 0
DWIDTH 24 0
BBX 24 27 0 -5
BITMAP
000000
000000
000000
000000
000000
000000
000000
000000
000000
000000
000000
000000
000000
000000
000000
000000
000000
000000
000000
000000
000000
000000
000000
000000
000000
000000
000000
ENDCHAR
STARTCHAR c233f
ENCODING 9023
SWIDTH 500 0
DWIDTH 24 0
BBX 24 16 0 -2
BITMAP
fffffe
7fffff
000300
003f00
007f00
006000
003e00
011f00
018180
008380
007f00
003e00
000000
000400
000e00
000400
ENDCHAR
STARTCHAR c2340
ENCODING 9024
SWIDTH 500 0
DWIDTH 24 0
BBX 24 17 0 -3
BITMAP
fffffe
7fffff
000600
007e00
00fe00
01c000
018000
018e00
019f00
00b980
007180
003f80
001f00
000000
000800
001c00
000800
ENDCHAR
STARTCHAR c2341
ENCODING 9025
SWIDTH 500 0
DWIDTH 24 0
BBX 24 27 0 -5
BITMAP
000000
000000
000000
000000
000000
000000
000000
000000
000000
000000
000000
000000
000000
000000
000000
000000
000000
000000
000000
000000
000000
000000
000000
000000
000000
000000
000000
ENDCHAR
STARTCHAR c2342
ENCODING 9026
SWIDTH 500 0
DWIDTH 24 0
BBX 24 27 0 -5
BITMAP
000000
000000
000000
000000
000000
000000
000000
000000
000000
000000
000000
000000
000000
000000
000000
000000
000000
000000
000000
000000
000000
000000
000000
000000
000000
000000
000000
ENDCHAR
STARTCHAR c2343
ENCODING 9027
SWIDTH 500 0
DWIDTH 24 0
BBX 24 27 0 -5
BITMAP
000000
000000
000000
000000
000000
000000
000000
000000
000000
000000
000000
000000
000000
000000
000000
000000
000000
000000
000000
000000
000000
000000
000000
000000
000000
000000
000000
ENDCHAR
STARTCHAR c2344
ENCODING 9028
SWIDTH 500 0
DWIDTH 24 0
BBX 24 27 0 -5
BITMAP
000000
000000
000000
000000
000000
000000
000000
000000
000000
000000
000000
000000
000000
000000
000000
000000
000000
000000
000000
000000
000000
000000
000000
000000
000000
000000
000000
ENDCHAR
STARTCHAR c2345
ENCODING 9029
SWIDTH 500 0
DWIDTH 24 0
BBX 24 27 0 -5
BITMAP
000000
000000
000000
000000
000000
000000
000000
000000
000000
000000
000000
000000
000000
000000
000000
000000
000000
000000
000000
000000
000000
000000
000000
000000
000000
000000
000000
ENDCHAR
STARTCHAR c2346
ENCODING 9030
SWIDTH 500 0
DWIDTH 24 0
BBX 24 27 0 -5
BITMAP
000000
000000
000000
000000
000000
000000
000000
000000
000000
000000
000000
000000
000000
000000
000000
000000
000000
000000
000000
000000
000000
000000
000000
000000
000000
000000
000000
ENDCHAR
STARTCHAR c2347
ENCODING 9031
SWIDTH 500 0
DWIDTH 24 0
BBX 24 27 0 -5
BITMAP
000000
000000
000000
000000
000000
000000
000000
000000
000000
000000
000000
000000
000000
000000
000000
000000
000000
000000
000000
000000
000000
000000
000000
000000
000000
000000
000000
ENDCHAR
STARTCHAR c2348
ENCODING 9032
SWIDTH 500 0
DWIDTH 24 0
BBX 24 27 0 -5
BITMAP
000000
000000
000000
000000
000000
000000
000000
000000
000000
000000
000000
000000
000000
000000
000000
000000
000000
000000
000000
000000
000000
000000
000000
000000
000000
000000
000000
ENDCHAR
STARTCHAR c2349
ENCODING 9033
SWIDTH 500 0
DWIDTH 24 0
BBX 24 14 0 0
BITMAP
fffffe
7fffff
061800
061800
061f80
021fc0
031c60
01f860
00f860
0018e0
0018c0
0098c0
01d840
008800
ENDCHAR
STARTCHAR c234a
ENCODING 9034
SWIDTH 500 0
DWIDTH 24 0
BBX 24 14 0 0
BITMAP
007f00
00ff80
00c000
00c000
00c000
004000
003000
011800
018400
018600
018600
008e00
007c00
003800
ENDCHAR
STARTCHAR c234b
ENCODING 9035
SWIDTH 500 0
DWIDTH 24 0
BBX 24 8 0 -5
BITMAP
003800
00fc00
00c000
00c200
007e00
007c00
006300
003f00
ENDCHAR
STARTCHAR c234c
ENCODING 9036
SWIDTH 500 0
DWIDTH 24 0
BBX 24 7 0 -4
BITMAP
00ec00
01fe00
01b300
01b700
018600
000780
000380
ENDCHAR
STARTCHAR c234d
ENCODING 9037
SWIDTH 500 0
DWIDTH 24 0
BBX 24 8 0 -5
BITMAP
00ec00
01fe00
01b300
01b700
018600
000780
000780
000780
ENDCHAR
STARTCHAR c234e
ENCODING 9038
SWIDTH 500 0
DWIDTH 24 0
BBX 24 27 0 -5
BITMAP
000000
000000
000000
000000
000000
000000
000000
000000
000000
000000
000000
000000
000000
000000
000000
000000
000000
000000
000000
000000
000000
000000
000000
000000
000000
000000
000000
ENDCHAR
STARTCHAR c234f
ENCODING 9039
SWIDTH 500 0
DWIDTH 24 0
BBX 24 27 0 -5
BITMAP
000000
000000
000000
000000
000000
000000
000000
000000
000000
000000
000000
000000
000000
000000
000000
000000
000000
000000
000000
000000
000000
000000
000000
000000
000000
000000
000000
ENDCHAR
STARTCHAR c2350
ENCODING 9040
SWIDTH 500 0
DWIDTH 24 0
BBX 24 14 0 0
BITMAP
fffffe
7fffff
018060
018060
018060
07ffe0
07ffe0
078060
038060
000fe0
001fe0
000e60
000460
000020
ENDCHAR
STARTCHAR c2351
ENCODING 9041
SWIDTH 500 0
DWIDTH 24 0
BBX 24 15 0 -1
BITMAP
fffffe
7fffff
030060
030060
030060
0fffe0
0fffe0
0f0060
077060
00fbe0
00cfe0
00ce60
004460
003020
001800
ENDCHAR
STARTCHAR c2352
ENCODING 9042
SWIDTH 500 0
DWIDTH 24 0
BBX 24 17 0 -3
BITMAP
fffffe
7fffff
000600
00fe00
01fe00
018000
018000
00fc00
00fe00
01e300
018f00
019e00
009800
004f80
003780
001c00
000600
ENDCHAR
STARTCHAR c2353
ENCODING 9043
SWIDTH 500 0
DWIDTH 24 0
BBX 24 27 0 -5
BITMAP
000000
000000
000000
000000
000000
000000
000000
000000
000000
000000
000000
000000
000000
000000
000000
000000
000000
000000
000000
000000
000000
000000
000000
000000
000000
000000
000000
ENDCHAR
STARTCHAR c2354
ENCODING 9044
SWIDTH 500 0
DWIDTH 24 0
BBX 24 27 0 -5
BITMAP
000000
000000
000000
000000
000000
000000
000000
000000
000000
000000
000000
000000
000000
000000
000000
000000
000000
000000
000000
000000
000000
000000
000000
000000
000000
000000
000000
ENDCHAR
STARTCHAR c2355
ENCODING 9045
SWIDTH 500 0
DWIDTH 24 0
BBX 24 27 0 -5
BITMAP
000000
000000
000000
000000
000000
000000
000000
000000
000000
000000
000000
000000
000000
000000
000000
000000
000000
000000
000000
000000
000000
000000
000000
000000
000000
000000
000000
ENDCHAR
STARTCHAR c2356
ENCODING 9046
SWIDTH 500 0
DWIDTH 24 0
BBX 24 27 0 -5
BITMAP
000000
000000
000000
000000
000000
000000
000000
000000
000000
000000
000000
000000
000000
000000
000000
000000
000000
000000
000000
000000
000000
000000
000000
000000
000000
000000
000000
ENDCHAR
STARTCHAR c2357
ENCODING 9047
SWIDTH 500 0
DWIDTH 24 0
BBX 24 27 0 -5
BITMAP
000000
000000
000000
000000
000000
000000
000000
000000
000000
000000
000000
000000
000000
000000
000000
000000
000000
000000
000000
000000
000000
000000
000000
000000
000000
000000
000000
ENDCHAR
STARTCHAR c2358
ENCODING 9048
SWIDTH 500 0
DWIDTH 24 0
BBX 24 27 0 -5
BITMAP
000000
000000
000000
000000
000000
000000
000000
000000
000000
000000
000000
000000
000000
000000
000000
000000
000000
000000
000000
000000
000000
000000
000000
000000
000000
000000
000000
ENDCHAR
STARTCHAR c2359
ENCODING 9049
SWIDTH 500 0
DWIDTH 24 0
BBX 24 27 0 -5
BITMAP
000000
000000
000000
000000
000000
000000
000000
000000
000000
000000
000000
000000
000000
000000
000000
000000
000000
000000
000000
000000
000000
000000
000000
000000
000000
000000
000000
ENDCHAR
STARTCHAR c235a
ENCODING 9050
SWIDTH 500 0
DWIDTH 24 0
BBX 24 27 0 -5
BITMAP
000000
000000
000000
000000
000000
000000
000000
000000
000000
000000
000000
000000
000000
000000
000000
000000
000000
000000
000000
000000
000000
000000
000000
000000
000000
000000
000000
ENDCHAR
STARTCHAR c235b
ENCODING 9051
SWIDTH 500 0
DWIDTH 24 0
BBX 24 27 0 -5
BITMAP
000000
000000
000000
000000
000000
000000
000000
000000
000000
000000
000000
000000
000000
000000
000000
000000
000000
000000
000000
000000
000000
000000
000000
000000
000000
000000
000000
ENDCHAR
STARTCHAR c235c
ENCODING 9052
SWIDTH 500 0
DWIDTH 24 0
BBX 24 27 0 -5
BITMAP
000000
000000
000000
000000
000000
000000
000000
000000
000000
000000
000000
000000
000000
000000
000000
000000
000000
000000
000000
000000
000000
000000
000000
000000
000000
000000
000000
ENDCHAR
STARTCHAR c235d
ENCODING 9053
SWIDTH 500 0
DWIDTH 24 0
BBX 24 27 0 -5
BITMAP
000000
000000
000000
000000
000000
000000
000000
000000
000000
000000
000000
000000
000000
000000
000000
000000
000000
000000
000000
000000
000000
000000
000000
000000
000000
000000
000000
ENDCHAR
STARTCHAR c235e
ENCODING 9054
SWIDTH 500 0
DWIDTH 24 0
BBX 24 27 0 -5
BITMAP
000000
000000
000000
000000
000000
000000
000000
000000
000000
000000
000000
000000
000000
000000
000000
000000
000000
000000
000000
000000
000000
000000
000000
000000
000000
000000
000000
ENDCHAR
STARTCHAR c235f
ENCODING 9055
SWIDTH 500 0
DWIDTH 24 0
BBX 24 27 0 -5
BITMAP
000000
000000
000000
000000
000000
000000
000000
000000
000000
000000
000000
000000
000000
000000
000000
000000
000000
000000
000000
000000
000000
000000
000000
000000
000000
000000
000000
ENDCHAR
STARTCHAR c2360
ENCODING 9056
SWIDTH 500 0
DWIDTH 24 0
BBX 24 15 0 -1
BITMAP
7ffffc
3ffffe
0000c0
01e3c0
03f7c0
030ec0
030cc0
0304c0
01e3c0
03f7c0
030ec0
030cc0
030cc0
010040
008000
ENDCHAR
STARTCHAR c2361
ENCODING 9057
SWIDTH 500 0
DWIDTH 24 0
BBX 24 16 0 -2
BITMAP
7ffffc
3ffffe
000300
007b00
00ff00
01c300
018300
008700
007f00
003f00
000300
00ff00
01ff00
00e300
004300
000100
ENDCHAR
STARTCHAR c2362
ENCODING 9058
SWIDTH 500 0
DWIDTH 24 0
BBX 24 18 0 -4
BITMAP
7ffffc
3ffffe
007b00
00ff00
01c300
018300
008700
007f00
003f00
007b00
00ff00
01c300
018300
008700
007f00
003f00
000300
000100
ENDCHAR
STARTCHAR c2363
ENCODING 9059
SWIDTH 500 0
DWIDTH 24 0
BBX 24 14 0 0
BITMAP
7ffffc
3ffffe
0198c0
0198c0
00f8c0
03fec0
03c7c0
0000c0
01fec0
00ffc0
0030c0
0031c0
001fc0
000f40
ENDCHAR
STARTCHAR c2364
ENCODING 9060
SWIDTH 500 0
DWIDTH 24 0
BBX 24 14 0 0
BITMAP
7ffffc
3ffffe
0198c0
0198c0
00f8c0
03fec0
03c7c0
0000c0
0000c0
007fc0
00ffc0
0070c0
0020c0
000040
ENDCHAR
STARTCHAR c2365
ENCODING 9061
SWIDTH 500 0
DWIDTH 24 0
BBX 24 14 0 0
BITMAP
7ffffc
3ffffe
033180
033180
01f180
07fd80
078f80
003f80
007f80
006980
006780
003f80
001f80
000080
ENDCHAR
STARTCHAR c2366
ENCODING 9062
SWIDTH 500 0
DWIDTH 24 0
BBX 24 14 0 0
BITMAP
7ffff0
3ffff8
066300
066300
03e300
0ffb00
0f1f00
000300
078f00
0fff00
0c3b00
041300
030300
018100
ENDCHAR
STARTCHAR c2367
ENCODING 9063
SWIDTH 500 0
DWIDTH 24 0
BBX 24 14 0 0
BITMAP
7ffff8
3ffffc
033180
033180
01f180
07fd80
078f80
003f80
007f80
006180
006380
003f80
001f80
000080
ENDCHAR
STARTCHAR c2368
ENCODING 9064
SWIDTH 500 0
DWIDTH 24 0
BBX 24 19 0 -5
BITMAP
fffffe
7fffff
38c060
36c060
33c060
31c060
13c060
0fc060
1e0060
380060
300060
307060
1ff0e0
0fefe0
00e7e0
01c060
018060
038020
010000
ENDCHAR
STARTCHAR c2369
ENCODING 9065
SWIDTH 500 0
DWIDTH 24 0
BBX 24 14 0 0
BITMAP
7ffffe
3fffff
1cc060
1af060
19f860
0bcc60
0fcc60
1e0c60
181de0
181fe0
0fc760
07c060
000060
000020
ENDCHAR
STARTCHAR c236a
ENCODING 9066
SWIDTH 500 0
DWIDTH 24 0
BBX 24 19 0 -5
BITMAP
7ffffe
3ffffe
01c600
01b600
019e00
018e00
009e00
007e00
00f000
01c000
018000
018380
00ff80
01fe00
018600
018e00
00fe00
007e00
000600
ENDCHAR
STARTCHAR c236b
ENCODING 9067
SWIDTH 500 0
DWIDTH 24 0
BBX 24 14 0 0
BITMAP
7ffffc
3ffffe
01c600
01b600
019e00
018e00
009e00
007e00
00f000
01c000
018000
018380
00ff80
007e00
ENDCHAR
STARTCHAR c236c
ENCODING 9068
SWIDTH 500 0
DWIDTH 24 0
BBX 24 14 0 0
BITMAP
7ffffc
3ffffe
01c600
01e600
01b600
019e00
00be00
00fe00
01e100
018080
0180c0
0081c0
007f80
003f00
ENDCHAR
STARTCHAR c236d
ENCODING 9069
SWIDTH 500 0
DWIDTH 24 0
BBX 24 14 0 0
BITMAP
7ffffc
3ffffe
018180
038180
0b0180
0f0380
0fff80
067f80
060180
021f80
033f80
011d80
008980
004080
ENDCHAR
STARTCHAR c236e
ENCODING 9070
SWIDTH 500 0
DWIDTH 24 0
BBX 24 14 0 0
BITMAP
7ffffc
3ffffe
00c180
01c180
058180
078380
07ff80
033f80
030780
010f80
019d80
00b980
005180
002080
ENDCHAR
STARTCHAR c236f
ENCODING 9071
SWIDTH 500 0
DWIDTH 24 0
BBX 24 27 0 -5
BITMAP
000000
000000
000000
000000
000000
000000
000000
000000
000000
000000
000000
000000
000000
000000
000000
000000
000000
000000
000000
000000
000000
000000
000000
000000
000000
000000
000000
ENDCHAR
STARTCHAR c2370
ENCODING 9072
SWIDTH 500 0
DWIDTH 24 0
BBX 24 18 0 -4
BITMAP
7ffffc
3ffffe
001800
03f800
07f800
060000
060000
03ff80
03ffc0
076cc0
066cc0
066cc0
023cc0
0118c0
00c040
007800
001c00
000200
ENDCHAR
STARTCHAR c2371
ENCODING 9073
SWIDTH 500 0
DWIDTH 24 0
BBX 24 18 0 -4
BITMAP
7ffffc
3ffffe
000180
007f80
00ff80
00c000
004000
003f80
007fc0
00f060
00c060
00c3e0
0063c0
03f000
07dc00
078780
0381e0
010020
ENDCHAR
STARTCHAR c2372
ENCODING 9074
SWIDTH 500 0
DWIDTH 24 0
BBX 24 18 0 -4
BITMAP
7ffffc
3ffffe
0030c0
07f0c0
0ff0c0
0c00c0
0c00c0
07c0c0
07e0c0
0e10c0
0c18c0
0c7fc0
047fc0
0238c0
0198c0
00e040
003000
000800
ENDCHAR
STARTCHAR c2373
ENCODING 9075
SWIDTH 500 0
DWIDTH 24 0
BBX 24 18 0 -4
BITMAP
7ffffc
3ffffe
0030c0
07f0c0
0ff0c0
0c00c0
0c00c0
07e0c0
07f0c0
0e18c0
0c19c0
0c7bc0
043fc0
021ec0
0180c0
00e040
003000
000800
ENDCHAR
STARTCHAR c2374
ENCODING 9076
SWIDTH 500 0
DWIDTH 24 0
BBX 24 18 0 -4
BITMAP
7ffffc
3ffffe
000180
007f80
00ff80
00c000
004000
003f80
007fc0
00f060
00c060
00c3e0
0063c0
00f000
01fc00
078780
0701e0
000020
ENDCHAR
STARTCHAR c2375
ENCODING 9077
SWIDTH 500 0
DWIDTH 24 0
BBX 24 18 0 -4
BITMAP
7ffffe
3fffff
000060
001fe0
003fe0
003000
001000
000fe0
001ff0
003c18
1df018
3ff0f8
3190f0
104c00
0c2700
0701e0
018078
004008
ENDCHAR
STARTCHAR c2376
ENCODING 9078
SWIDTH 500 0
DWIDTH 24 0
BBX 24 18 0 -4
BITMAP
7ffffc
3ffffe
000180
007f80
00ff80
00c000
004000
003f80
007fc0
00f060
00c060
00c3e0
07e3c0
0ff000
0c1c00
041f80
03f9e0
01f020
ENDCHAR
STARTCHAR c2377
ENCODING 9079
SWIDTH 500 0
DWIDTH 24 0
BBX 24 27 0 -5
BITMAP
000000
000000
000000
000000
000000
000000
000000
000000
000000
000000
000000
000000
000000
000000
000000
000000
000000
000000
000000
000000
000000
000000
000000
000000
000000
000000
000000
ENDCHAR
STARTCHAR c2378
ENCODING 9080
SWIDTH 500 0
DWIDTH 24 0
BBX 24 27 0 -5
BITMAP
000000
000000
000000
000000
000000
000000
000000
000000
000000
000000
000000
000000
000000
000000
000000
000000
000000
000000
000000
000000
000000
000000
000000
000000
000000
000000
000000
ENDCHAR
STARTCHAR c2379
ENCODING 9081
SWIDTH 500 0
DWIDTH 24 0
BBX 24 27 0 -5
BITMAP
000000
000000
000000
000000
000000
000000
000000
000000
000000
000000
000000
000000
000000
000000
000000
000000
000000
000000
000000
000000
000000
000000
000000
000000
000000
000000
000000
ENDCHAR
STARTCHAR c237a
ENCODING 9082
SWIDTH 500 0
DWIDTH 24 0
BBX 24 27 0 -5
BITMAP
000000
000000
000000
000000
000000
000000
000000
000000
000000
000000
000000
000000
000000
000000
000000
000000
000000
000000
000000
000000
000000
000000
000000
000000
000000
000000
000000
ENDCHAR
STARTCHAR c237b
ENCODING 9083
SWIDTH 500 0
DWIDTH 24 0
BBX 24 27 0 -5
BITMAP
000000
000000
000000
000000
000000
000000
000000
000000
000000
000000
000000
000000
000000
000000
000000
000000
000000
000000
000000
000000
000000
000000
000000
000000
000000
000000
000000
ENDCHAR
STARTCHAR c237c
ENCODING 9084
SWIDTH 500 0
DWIDTH 24 0
BBX 24 27 0 -5
BITMAP
000000
000000
000000
000000
000000
000000
000000
000000
000000
000000
000000
000000
000000
000000
000000
000000
000000
000000
000000
000000
000000
000000
000000
000000
000000
000000
000000
ENDCHAR
STARTCHAR c237d
ENCODING 9085
SWIDTH 500 0
DWIDTH 24 0
BBX 24 27 0 -5
BITMAP
000000
000000
000000
000000
000000
000000
000000
000000
000000
000000
000000
000000
000000
000000
000000
000000
000000
000000
000000
000000
000000
000000
000000
000000
000000
000000
000000
ENDCHAR
STARTCHAR c237e
ENCODING 9086
SWIDTH 500 0
DWIDTH 24 0
BBX 24 27 0 -5
BITMAP
000000
000000
000000
000000
000000
000000
000000
000000
000000
000000
000000
000000
000000
000000
000000
000000
000000
000000
000000
000000
000000
000000
000000
000000
000000
000000
000000
ENDCHAR
STARTCHAR c2421
ENCODING 9249
SWIDTH 500 0
DWIDTH 24 0
BBX 24 18 0 -4
BITMAP
7ffffe
3fffff
00c060
3ff860
1ffc60
00c660
1fce60
3fdc60
30cce0
30c7e0
10c3e0
08c060
04c060
03e020
01b000
039000
030000
070000
ENDCHAR
STARTCHAR c2422
ENCODING 9250
SWIDTH 500 0
DWIDTH 24 0
BBX 24 14 0 0
BITMAP
7ffffe
3fffff
000600
3ffe00
1fffe0
0007f0
00ff18
1ffe18
3fc618
30fe38
307e30
100630
0c0600
060200
ENDCHAR
STARTCHAR c2423
ENCODING 9251
SWIDTH 500 0
DWIDTH 24 0
BBX 24 14 0 0
BITMAP
7ffffe
3fffff
00c060
3ff860
1ffc60
00c660
1fce60
3fdc60
30cce0
30c7e0
10c3e0
08c060
04c060
024020
ENDCHAR
STARTCHAR c2424
ENCODING 9252
SWIDTH 500 0
DWIDTH 24 0
BBX 24 14 0 0
BITMAP
7ffffe
3fffff
018060
1ff060
3ff860
318c60
319c60
319860
1f98e0
018fe0
1f87e0
3f8060
1d8060
088020
ENDCHAR
STARTCHAR c2425
ENCODING 9253
SWIDTH 500 0
DWIDTH 24 0
BBX 24 14 0 0
BITMAP
fffffe
7fffff
00c060
0ff860
7ffc60
38c660
00ce60
03dc60
0fd9e0
3ecfe0
18c760
00c060
00c060
004020
ENDCHAR
STARTCHAR c2426
ENCODING 9254
SWIDTH 500 0
DWIDTH 24 0
BBX 24 14 0 0
BITMAP
fffffe
7fffff
00c060
3ff860
7ffc60
61c660
3fc660
1fde60
00dce0
3fcfe0
7fc7e0
30c060
1fc060
004020
ENDCHAR
STARTCHAR c2427
ENCODING 9255
SWIDTH 500 0
DWIDTH 24 0
BBX 24 14 0 0
BITMAP
7ffffc
3ffffe
001800
07ff80
0fffc0
0c3860
07f8e0
03f840
001800
07ff80
0e1fc0
07f860
03f8e0
000840
ENDCHAR
STARTCHAR c2428
ENCODING 9256
SWIDTH 500 0
DWIDTH 24 0
BBX 24 14 0 0
BITMAP
7ffffc
3ffffe
003000
0ff000
07ff00
003f80
07f8c0
0ff0c0
0c30c0
0c30c0
0431c0
023180
013080
009000
ENDCHAR
STARTCHAR c2429
ENCODING 9257
SWIDTH 500 0
DWIDTH 24 0
BBX 24 14 0 0
BITMAP
7ffffc
3ffffe
001800
01f800
03ff80
031fc0
031c60
031860
01f860
01f860
0018e0
03f8c0
01d840
008800
ENDCHAR
STARTCHAR c242a
ENCODING 9258
SWIDTH 500 0
DWIDTH 24 0
BBX 24 14 0 0
BITMAP
fffffe
7fffff
018060
1ff060
3ff860
318c60
318c60
31bfe0
1fbfe0
0fbc60
019c60
018060
018060
008020
ENDCHAR
STARTCHAR c242b
ENCODING 9259
SWIDTH 500 0
DWIDTH 24 0
BBX 24 14 0 0
BITMAP
fffffe
7fffff
018060
1ff060
3ff860
318c60
319c60
319860
1f98e0
0f8fe0
0187e0
018060
018060
008020
ENDCHAR
STARTCHAR c242c
ENCODING 9260
SWIDTH 500 0
DWIDTH 24 0
BBX 24 14 0 0
BITMAP
7ffffc
3ffffe
001800
00f800
01ff80
039fc0
031c60
0f7860
1ff860
19f860
0998e0
0c98c0
041840
020800
ENDCHAR
STARTCHAR c242d
ENCODING 9261
SWIDTH 500 0
DWIDTH 24 0
BBX 24 14 0 0
BITMAP
7ffffc
3ffffe
001800
07ff00
0fff80
0c3840
07f860
03f860
001860
07f8e0
0ff8c0
0618c0
03f840
000800
ENDCHAR
STARTCHAR c242e
ENCODING 9262
SWIDTH 500 0
DWIDTH 24 0
BBX 24 14 0 0
BITMAP
03cffc
07e7fe
063180
063180
067380
03e780
03ff80
07fd80
063180
063980
023980
01f980
00f980
000880
ENDCHAR
STARTCHAR c242f
ENCODING 9263
SWIDTH 500 0
DWIDTH 24 0
BBX 24 15 0 -1
BITMAP
7ffffc
3ffffe
030300
010300
00f300
01fb00
018300
018f00
00ff00
007b00
000300
00ff00
01ff00
00e100
004000
ENDCHAR
STARTCHAR c2430
ENCODING 9264
SWIDTH 500 0
DWIDTH 24 0
BBX 24 19 0 -5
BITMAP
7ffffe
3fffff
006060
07e060
0fe060
0c0460
07ce60
23e460
303060
107060
0fe060
07f060
3ff860
1fc860
01cc60
07dce0
0ed9e0
0cdfe0
04cf60
ENDCHAR
STARTCHAR c2431
ENCODING 9265
SWIDTH 500 0
DWIDTH 24 0
BBX 24 19 0 -5
BITMAP
7ffffc
3ffffe
000300
003f00
007f00
006020
003e70
011f20
018180
008380
0e7f00
1f3f00
19bf00
1bff00
0f6300
1fe300
1fff00
091f00
0f8300
ENDCHAR
STARTCHAR c2432
ENCODING 9266
SWIDTH 500 0
DWIDTH 24 0
BBX 24 19 0 -5
BITMAP
7ffffc
3ffffe
000c00
00fc00
01fc00
018080
00f9c0
047c80
060600
03fe00
01fc00
001800
07fc00
03fe00
001b00
03fb00
031b00
031b00
019b00
ENDCHAR
STARTCHAR c2433
ENCODING 9267
SWIDTH 500 0
DWIDTH 24 0
BBX 24 19 0 -5
BITMAP
7ffffc
3ffffe
000600
007e00
00fe00
00c040
007ce0
023e40
030300
01ff00
01fe00
03e600
032600
036600
01fe00
03fe00
030600
012600
01f600
ENDCHAR
STARTCHAR c2434
ENCODING 9268
SWIDTH 500 0
DWIDTH 24 0
BBX 24 19 0 -5
BITMAP
fffffe
7fffff
000600
007e00
00fe00
00c040
007ce0
023e40
030300
010700
00fe00
01fe00
018600
00c600
01e600
019e00
00fe00
007e00
00e600
ENDCHAR
STARTCHAR c2435
ENCODING 9269
SWIDTH 500 0
DWIDTH 24 0
BBX 24 19 0 -5
BITMAP
7ffffe
3fffff
006060
07e060
0fe060
0c0460
07ce60
23e460
303060
107060
0fe060
07c060
0ef860
3ffc60
31c660
1fde60
0fcce0
00cfe0
00c760
ENDCHAR
STARTCHAR c2436
ENCODING 9270
SWIDTH 500 0
DWIDTH 24 0
BBX 24 19 0 -5
BITMAP
7ffffe
3fffff
006060
07e060
0fe060
0c0460
07ce60
23e460
303060
187060
0fe060
0fe060
2c6060
3de060
1bf1e0
1b1fe0
0b1f60
05f860
02f020
ENDCHAR
STARTCHAR c2437
ENCODING 9271
SWIDTH 500 0
DWIDTH 24 0
BBX 24 19 0 -5
BITMAP
7ffffe
3fffff
006060
07e060
0fe060
0c0460
07ce60
23e460
303060
107060
0ff860
07cc60
060c60
0e3ce0
0e39e0
0e1fe0
060f60
000060
000020
ENDCHAR
STARTCHAR c2438
ENCODING 9272
SWIDTH 500 0
DWIDTH 24 0
BBX 24 19 0 -5
BITMAP
7ffffe
3fffff
006060
07e060
0fe060
0c0460
07ce60
23e460
303060
107060
0fe060
1fe060
186060
0e2060
1f31e0
18ffe0
0fef60
078060
000020
ENDCHAR
STARTCHAR c2439
ENCODING 9273
SWIDTH 500 0
DWIDTH 24 0
BBX 24 19 0 -5
BITMAP
fffffe
7fffff
000c00
00fc00
01fc00
018080
00f9c0
047c80
060600
020e00
01fc00
00f800
01fe00
03ff00
031b00
031b00
01fb00
00fb00
001b00
ENDCHAR
STARTCHAR c243a
ENCODING 9274
SWIDTH 500 0
DWIDTH 24 0
BBX 24 19 0 -5
BITMAP
7ffffc
3ffffe
000600
007e00
00fe00
00c040
007ce0
023e40
030300
010700
00fe00
00fe00
00c600
03fe00
03fe00
016600
00be00
00de00
006600
ENDCHAR
STARTCHAR c243b
ENCODING 9275
SWIDTH 500 0
DWIDTH 24 0
BBX 24 19 0 -5
BITMAP
7ffffc
3ffffe
000c00
00fc00
01fc00
018080
00f9c0
047c80
060600
020e00
01fc00
00fc00
00cc00
00cc00
01cc00
01cc00
01cc00
00cc00
000c00
ENDCHAR
STARTCHAR c243c
ENCODING 9276
SWIDTH 500 0
DWIDTH 24 0
BBX 24 19 0 -5
BITMAP
7ffffc
3ffffe
000600
007e00
00fe00
00c040
007ce0
023e40
030300
010700
00fe00
01fe00
018600
00c600
01e600
018e00
00fe00
007e00
000600
ENDCHAR
STARTCHAR c243d
ENCODING 9277
SWIDTH 500 0
DWIDTH 24 0
BBX 24 19 0 -5
BITMAP
7ffffc
3ffffe
000600
007e00
00fe00
00c040
007ce0
023e40
030300
010700
00fe00
007e00
00fe00
00c040
007ce0
020640
030300
01ff00
01ff00
ENDCHAR
STARTCHAR c243e
ENCODING 9278
SWIDTH 500 0
DWIDTH 24 0
BBX 24 19 0 -5
BITMAP
7ffffc
3ffffe
000600
007e00
00fe00
00c040
007ce0
023e40
030300
010700
00fe00
007e00
000600
000600
00fe00
01fe00
00f600
006600
000600
ENDCHAR
STARTCHAR c243f
ENCODING 9279
SWIDTH 500 0
DWIDTH 24 0
BBX 24 19 0 -5
BITMAP
7ffffe
3fffff
006060
07e060
0fe060
0c0460
07ce60
23e460
303060
107060
0fe060
07e060
006060
006060
01ffe0
01ffe0
00e060
004060
000020
ENDCHAR
STARTCHAR c2440
ENCODING 9280
SWIDTH 500 0
DWIDTH 24 0
BBX 24 19 0 -5
BITMAP
7ffffe
3fffff
006060
07e060
0fe060
0c0460
07ce60
23e460
303060
107060
0ff860
07cc60
000c60
001c60
0019e0
001fe0
000760
000060
000020
ENDCHAR
STARTCHAR c2441
ENCODING 9281
SWIDTH 500 0
DWIDTH 24 0
BBX 24 14 0 0
BITMAP
7ffffc
3ffffe
000180
000180
03fd80
01ff80
006180
03fd80
01ff80
00c180
00c180
00c780
007f80
003c80
ENDCHAR
STARTCHAR c2442
ENCODING 9282
SWIDTH 500 0
DWIDTH 24 0
BBX 24 14 0 0
BITMAP
fffffe
7fffff
000180
03fd80
01ff80
00e380
00c780
007f80
03bd80
01c180
006180
007f80
03ff80
01c080
ENDCHAR
STARTCHAR c2443
ENCODING 9283
SWIDTH 500 0
DWIDTH 24 0
BBX 24 14 0 0
BITMAP
fffffe
7fffff
00180c
3e380c
7f7c0c
60660c
20660c
1f660c
0fae0c
1c3c0c
181c1c
18783c
0ff7fc
07c3e4
ENDCHAR
STARTCHAR c2444
ENCODING 9284
SWIDTH 500 0
DWIDTH 24 0
BBX 24 14 0 0
BITMAP
fffffe
7fffff
000060
000060
11ffe0
18ffe0
184060
182060
0830e0
0631e0
03f7e0
00ee60
001c60
000820
ENDCHAR
STARTCHAR c2445
ENCODING 9285
SWIDTH 500 0
DWIDTH 24 0
BBX 24 16 0 -2
BITMAP
7ffffc
3ffffe
000300
000300
00e300
01fb00
018f00
008300
004300
002300
003300
03b300
03f300
01e100
001000
000800
ENDCHAR
STARTCHAR c2446
ENCODING 9286
SWIDTH 500 0
DWIDTH 24 0
BBX 24 14 0 0
BITMAP
fffffe
7fffff
038180
01c180
006180
007f80
03ff80
01c180
03fd80
01ff80
00e180
00c780
007f80
003c80
ENDCHAR
STARTCHAR c2447
ENCODING 9287
SWIDTH 500 0
DWIDTH 24 0
BBX 24 14 0 0
BITMAP
7ffffc
3ffffe
0700c0
0380c0
00c1c0
00ffc0
07ffc0
0380c0
047fc0
063fc0
0210c0
0118c0
00f8c0
007040
ENDCHAR
STARTCHAR c2448
ENCODING 9288
SWIDTH 500 0
DWIDTH 24 0
BBX 24 19 0 -5
BITMAP
7ffffc
3ffffe
000c00
007c00
01fc00
03c000
030000
030200
01ff00
00fe00
001800
01fc00
03fe00
031b00
01fb00
00fb00
001b00
001900
000800
ENDCHAR
STARTCHAR c2449
ENCODING 9289
SWIDTH 500 0
DWIDTH 24 0
BBX 24 19 0 -5
BITMAP
7ffffc
3ffffe
000600
003e00
00fe00
01e000
018000
018100
00ff80
007f00
000600
000e00
007e00
00fa00
01c000
018000
008380
007f80
003e00
ENDCHAR
STARTCHAR c244a
ENCODING 9290
SWIDTH 500 0
DWIDTH 24 0
BBX 24 19 0 -5
BITMAP
7ffffc
3ffffe
000600
003e00
00fe00
01e000
018000
018100
00ff80
007f00
000600
000600
003e00
00ff00
01e180
0180c0
0081c0
007f80
003f00
ENDCHAR
STARTCHAR c244b
ENCODING 9291
SWIDTH 500 0
DWIDTH 24 0
BBX 24 14 0 0
BITMAP
fffffe
7fffff
00e060
00f060
03c860
0fcc60
1e0c60
180c60
181de0
0c1fe0
07c760
01c060
000060
000020
ENDCHAR
STARTCHAR c244c
ENCODING 9292
SWIDTH 500 0
DWIDTH 24 0
BBX 24 14 0 0
BITMAP
7ffffc
3ffffe
0030c0
0070c0
03f0c0
07c8c0
060cc0
060cc0
021cc0
01f8c0
00f1c0
0023c0
001fc0
000e40
ENDCHAR
STARTCHAR c244d
ENCODING 9293
SWIDTH 500 0
DWIDTH 24 0
BBX 24 19 0 -5
BITMAP
7ffffe
3fffff
006060
07e060
0fe060
0c0060
07c060
23e060
303060
107060
0ff860
07cc60
060c60
0e3ce0
0e39e0
0e1fe0
060f60
000060
000020
ENDCHAR
STARTCHAR c244e
ENCODING 9294
SWIDTH 500 0
DWIDTH 24 0
BBX 24 19 0 -5
BITMAP
7ffffc
3ffffe
000300
003f00
007f00
006000
003e00
011f00
018180
008380
007f00
00ff00
00c300
006300
00f300
00cf00
007f00
003f00
007300
ENDCHAR
STARTCHAR c244f
ENCODING 9295
SWIDTH 500 0
DWIDTH 24 0
BBX 24 18 0 -4
BITMAP
fffffe
7fffff
003060
03f060
07f060
060060
03e060
11f060
1818e0
083fe0
07ffe0
03e060
01c060
01e020
03b000
031000
070000
060000
ENDCHAR
STARTCHAR c2450
ENCODING 9296
SWIDTH 500 0
DWIDTH 24 0
BBX 24 19 0 -5
BITMAP
7ffffc
3ffffe
000600
007e00
00fe00
00c000
007c00
023e00
030300
010700
00fe00
007e00
006600
006600
00e600
00e600
00e600
006600
000600
ENDCHAR
STARTCHAR c2451
ENCODING 9297
SWIDTH 500 0
DWIDTH 24 0
BBX 24 18 0 -4
BITMAP
7ffffc
3ffffe
000600
007e00
00fe00
00c000
007c00
023e00
030300
010700
00fe00
01fe00
018600
00c600
01e600
018e00
00fe00
007e00
ENDCHAR
STARTCHAR c2452
ENCODING 9298
SWIDTH 500 0
DWIDTH 24 0
BBX 24 19 0 -5
BITMAP
7ffffc
3ffffe
000600
003e00
007e00
006000
003800
010e00
018300
008700
007e00
007e00
007e00
006000
003800
010e00
018300
00ff00
00ff00
ENDCHAR
STARTCHAR c2453
ENCODING 9299
SWIDTH 500 0
DWIDTH 24 0
BBX 24 19 0 -5
BITMAP
7ffffe
3fffff
006060
07e060
0fe060
0c0060
07c060
23e060
303060
107060
0fe060
07e060
006060
006060
01ffe0
01ffe0
00e060
004060
000020
ENDCHAR
STARTCHAR c2454
ENCODING 9300
SWIDTH 500 0
DWIDTH 24 0
BBX 24 14 0 0
BITMAP
fffffe
7fffff
003060
03f060
07f060
060060
03e060
11f060
1818e0
083fe0
07ffe0
03e060
000060
000020
ENDCHAR
STARTCHAR c2455
ENCODING 9301
SWIDTH 500 0
DWIDTH 24 0
BBX 24 27 0 -5
BITMAP
000000
000000
000000
000000
000000
000000
000000
000000
000000
000000
000000
000000
000000
000000
000000
000000
000000
000000
000000
000000
000000
000000
000000
000000
000000
000000
000000
ENDCHAR
STARTCHAR c2456
ENCODING 9302
SWIDTH 500 0
DWIDTH 24 0
BBX 24 27 0 -5
BITMAP
000000
000000
000000
000000
000000
000000
000000
000000
000000
000000
000000
000000
000000
000000
000000
000000
000000
000000
000000
000000
000000
000000
000000
000000
000000
000000
000000
ENDCHAR
STARTCHAR c2457
ENCODING 9303
SWIDTH 500 0
DWIDTH 24 0
BBX 24 27 0 -5
BITMAP
000000
000000
000000
000000
000000
000000
000000
000000
000000
000000
000000
000000
000000
000000
000000
000000
000000
000000
000000
000000
000000
000000
000000
000000
000000
000000
000000
ENDCHAR
STARTCHAR c2458
ENCODING 9304
SWIDTH 500 0
DWIDTH 24 0
BBX 24 27 0 -5
BITMAP
000000
000000
000000
000000
000000
000000
000000
000000
000000
000000
000000
000000
000000
000000
000000
000000
000000
000000
000000
000000
000000
000000
000000
000000
000000
000000
000000
ENDCHAR
STARTCHAR c2459
ENCODING 9305
SWIDTH 500 0
DWIDTH 24 0
BBX 24 27 0 -5
BITMAP
000000
000000
000000
000000
000000
000000
000000
000000
000000
000000
000000
000000
000000
000000
000000
000000
000000
000000
000000
000000
000000
000000
000000
000000
000000
000000
000000
ENDCHAR
STARTCHAR c245a
ENCODING 9306
SWIDTH 500 0
DWIDTH 24 0
BBX 24 27 0 -5
BITMAP
000000
000000
000000
000000
000000
000000
000000
000000
000000
000000
000000
000000
000000
000000
000000
000000
000000
000000
000000
000000
000000
000000
000000
000000
000000
000000
000000
ENDCHAR
STARTCHAR c245b
ENCODING 9307
SWIDTH 500 0
DWIDTH 24 0
BBX 24 27 0 -5
BITMAP
000000
000000
000000
000000
000000
000000
000000
000000
000000
000000
000000
000000
000000
000000
000000
000000
000000
000000
000000
000000
000000
000000
000000
000000
000000
000000
000000
ENDCHAR
STARTCHAR c245c
ENCODING 9308
SWIDTH 500 0
DWIDTH 24 0
BBX 24 27 0 -5
BITMAP
000000
000000
000000
000000
000000
000000
000000
000000
000000
000000
000000
000000
000000
000000
000000
000000
000000
000000
000000
000000
000000
000000
000000
000000
000000
000000
000000
ENDCHAR
STARTCHAR c245d
ENCODING 9309
SWIDTH 500 0
DWIDTH 24 0
BBX 24 27 0 -5
BITMAP
000000
000000
000000
000000
000000
000000
000000
000000
000000
000000
000000
000000
000000
000000
000000
000000
000000
000000
000000
000000
000000
000000
000000
000000
000000
000000
000000
ENDCHAR
STARTCHAR c245e
ENCODING 9310
SWIDTH 500 0
DWIDTH 24 0
BBX 24 27 0 -5
BITMAP
000000
000000
000000
000000
000000
000000
000000
000000
000000
000000
000000
000000
000000
000000
000000
000000
000000
000000
000000
000000
000000
000000
000000
000000
000000
000000
000000
ENDCHAR
STARTCHAR c245f
ENCODING 9311
SWIDTH 500 0
DWIDTH 24 0
BBX 24 27 0 -5
BITMAP
000000
000000
000000
000000
000000
000000
000000
000000
000000
000000
000000
000000
000000
000000
000000
000000
000000
000000
000000
000000
000000
000000
000000
000000
000000
000000
000000
ENDCHAR
STARTCHAR c2460
ENCODING 9312
SWIDTH 500 0
DWIDTH 24 0
BBX 24 14 0 0
BITMAP
fffffe
7fffff
001860
03f860
07f860
0e0060
0c0060
0c7060
0cf860
05cce0
038fe0
01ffe0
00f860
000020
ENDCHAR
STARTCHAR c2461
ENCODING 9313
SWIDTH 500 0
DWIDTH 24 0
BBX 24 14 0 0
BITMAP
7ffffc
3ffffe
0000c0
0000c0
03ffc0
01ffc0
00c0c0
00c0c0
00c0c0
0040c0
0060c0
0020c0
0018c0
000c40
ENDCHAR
STARTCHAR c2462
ENCODING 9314
SWIDTH 500 0
DWIDTH 24 0
BBX 24 14 0 0
BITMAP
7ffffc
3ffffe
0000c0
0000c0
01ffc0
03ffc0
0300c0
031fc0
033fc0
031cc0
0108c0
0080c0
0040c0
002040
ENDCHAR
STARTCHAR c2463
ENCODING 9315
SWIDTH 500 0
DWIDTH 24 0
BBX 24 18 0 -4
BITMAP
7ffffc
3ffffe
0018c0
03f8c0
07f8c0
0600c0
0600c0
03f0c0
03f8c0
0700c0
0600c0
0238c0
01fcc0
00f8c0
0061c0
0063c0
003fc0
001e40
ENDCHAR
STARTCHAR c2464
ENCODING 9316
SWIDTH 500 0
DWIDTH 24 0
BBX 24 14 0 0
BITMAP
fffffe
7fffff
000c60
01fc60
13fc60
1b0060
1b0060
091860
07fc60
07f860
0631e0
063fe0
03ff60
01e020
ENDCHAR
STARTCHAR c2465
ENCODING 9317
SWIDTH 500 0
DWIDTH 24 0
BBX 24 14 0 0
BITMAP
fffffe
7fffff
000660
00fe60
01fe60
118060
089c60
047e60
02fc60
03dc60
038fe0
0381e0
038060
018020
ENDCHAR
STARTCHAR c2466
ENCODING 9318
SWIDTH 500 0
DWIDTH 24 0
BBX 24 16 0 -2
BITMAP
7ffffc
3ffffe
0018c0
03f8c0
07f8c0
0600c0
0600c0
0600c0
0230c0
01f8c0
00f0c0
0031c0
007fc0
00e740
01c000
018000
ENDCHAR
STARTCHAR c2467
ENCODING 9319
SWIDTH 500 0
DWIDTH 24 0
BBX 24 15 0 -1
BITMAP
7ffffc
3ffffe
0018c0
03f8c0
07f8c0
0600c0
0600c0
0230c0
01f8c0
00f0c0
03e0c0
07e3c0
067fc0
03ee40
01c000
ENDCHAR
STARTCHAR c2468
ENCODING 9320
SWIDTH 500 0
DWIDTH 24 0
BBX 24 19 0 -5
BITMAP
7ffffc
3ffffe
000300
007f00
00ff00
01c000
018000
018600
008f00
00ff00
00ff00
00c600
00c600
01c600
01ce00
009e00
003e00
007600
006200
ENDCHAR
STARTCHAR c2469
ENCODING 9321
SWIDTH 500 0
DWIDTH 24 0
BBX 24 19 0 -5
BITMAP
7ffffc
3ffffe
000300
007f00
00ff00
00c000
00e000
01fe00
018f00
018300
00e300
01f300
018300
018f00
00ff00
007f00
003b00
007100
006000
ENDCHAR
STARTCHAR c246a
ENCODING 9322
SWIDTH 500 0
DWIDTH 24 0
BBX 24 18 0 -4
BITMAP
7ffffc
3ffffe
000300
007f00
00ff00
00c000
00c000
005e00
007f00
00f000
00c000
004300
007f80
00ff00
00c180
004380
003f40
001e00
ENDCHAR
STARTCHAR c246b
ENCODING 9323
SWIDTH 500 0
DWIDTH 24 0
BBX 24 18 0 -4
BITMAP
7ffffc
3ffffe
000300
007f00
00ff00
00c000
00c000
04c600
064f00
063f00
027f00
01e300
00c100
03c380
07ff40
063e60
03f820
01f000
ENDCHAR
STARTCHAR c246c
ENCODING 9324
SWIDTH 500 0
DWIDTH 24 0
BBX 24 19 0 -5
BITMAP
7ffffc
3ffffe
000300
007f00
00ff00
01c000
018000
018600
008f00
00ff00
00ff00
00c600
00c600
01c600
01c600
008600
000600
000600
000200
ENDCHAR
STARTCHAR c246d
ENCODING 9325
SWIDTH 500 0
DWIDTH 24 0
BBX 24 18 0 -4
BITMAP
7ffffc
3ffffe
000300
007f00
00ff00
00c000
00e000
01fe00
018f00
018300
00e300
01f300
018300
018f00
00ff00
007b00
000300
000100
ENDCHAR
STARTCHAR c246e
ENCODING 9326
SWIDTH 500 0
DWIDTH 24 0
BBX 24 17 0 -3
BITMAP
7ffffc
3ffffe
000600
00fe00
01fe00
018000
018000
00bc00
00fe00
01e000
018000
008600
007f00
003e00
000300
000100
000080
ENDCHAR
STARTCHAR c246f
ENCODING 9327
SWIDTH 500 0
DWIDTH 24 0
BBX 24 17 0 -3
BITMAP
7ffffc
3ffffe
000300
007f00
00ff00
00c000
00c000
04c600
064f00
063f00
027f00
01e300
00c180
00c380
007fc0
003e60
000030
ENDCHAR
STARTCHAR c2470
ENCODING 9328
SWIDTH 500 0
DWIDTH 24 0
BBX 24 16 0 -2
BITMAP
7ffffc
3ffffe
000600
00fe00
01fe00
018000
018000
008400
007e00
003e00
000600
00fe00
01fe00
00e600
004600
000200
ENDCHAR
STARTCHAR c2471
ENCODING 9329
SWIDTH 500 0
DWIDTH 24 0
BBX 24 17 0 -3
BITMAP
07ffc0
03ffe0
000c00
01fc00
03fc00
030000
030000
031800
013c00
00fc00
01fc00
03ec00
036e00
01fe00
00fb00
000180
0000c0
ENDCHAR
STARTCHAR c2472
ENCODING 9330
SWIDTH 500 0
DWIDTH 24 0
BBX 24 14 0 0
BITMAP
7ffffc
3ffffe
000300
007f00
00ff00
00c000
004000
063e00
031f00
008300
03ff00
03ff00
03c300
01c100
ENDCHAR
STARTCHAR c2473
ENCODING 9331
SWIDTH 500 0
DWIDTH 24 0
BBX 24 14 0 0
BITMAP
7ffffc
3ffffe
001980
01f980
03f980
030180
010180
008180
00ff80
00ff80
006180
002180
000180
000080
ENDCHAR
STARTCHAR c2474
ENCODING 9332
SWIDTH 500 0
DWIDTH 24 0
BBX 24 14 0 0
BITMAP
7ffffc
3ffffe
0018c0
03f8c0
07f8c0
0600c0
0600c0
0630c0
0278c0
01f8c0
00e1c0
0023c0
001fc0
000e40
ENDCHAR
STARTCHAR c2475
ENCODING 9333
SWIDTH 500 0
DWIDTH 24 0
BBX 24 17 0 -3
BITMAP
7ffffc
3ffffe
000c00
01fc00
03fc00
030000
030000
031800
013c00
00fc00
01fc00
038c00
030e00
01fe00
00fb00
000180
0000c0
ENDCHAR
STARTCHAR c2476
ENCODING 9334
SWIDTH 500 0
DWIDTH 24 0
BBX 24 15 0 -1
BITMAP
011ffc
038ffe
030300
010300
00f300
01fb00
018300
018f00
00ff00
007b00
000300
00ff00
01ff00
00e100
004000
ENDCHAR
STARTCHAR c2477
ENCODING 9335
SWIDTH 500 0
DWIDTH 24 0
BBX 24 14 0 0
BITMAP
7ffffc
3ffffe
000180
03c180
03f180
039980
018f80
003f80
007980
00e180
00e180
00e180
006180
000080
ENDCHAR
STARTCHAR c2478
ENCODING 9336
SWIDTH 500 0
DWIDTH 24 0
BBX 24 14 0 0
BITMAP
7ffffc
3ffffe
018300
018300
008300
006300
003f00
00ff00
01e300
018300
008300
00c300
006300
003100
ENDCHAR
STARTCHAR c2479
ENCODING 9337
SWIDTH 500 0
DWIDTH 24 0
BBX 24 14 0 0
BITMAP
7ffffc
3ffffe
018600
018600
018600
00c600
007e00
001e00
000600
000600
01fe00
03fe00
01c600
008200
ENDCHAR
STARTCHAR c247a
ENCODING 9338
SWIDTH 500 0
DWIDTH 24 0
BBX 24 14 0 0
BITMAP
7ffffc
3ffffe
00c180
004180
006180
003180
001f80
038f80
07df80
063980
063180
021180
018180
00c080
ENDCHAR
STARTCHAR c247b
ENCODING 9339
SWIDTH 500 0
DWIDTH 24 0
BBX 24 16 0 -2
BITMAP
7ffffc
3ffffe
000300
007b00
00ff00
01e300
019300
008f00
007f00
003f00
000300
00ff00
01ff00
00e300
004300
000100
ENDCHAR
STARTCHAR c247c
ENCODING 9340
SWIDTH 500 0
DWIDTH 24 0
BBX 24 18 0 -4
BITMAP
7ffffc
3ffffe
007b00
00ff00
01e300
019300
009f00
007f00
003f00
007b00
00ff00
01e300
019300
008f00
007f00
003f00
000300
000100
ENDCHAR
STARTCHAR c247d
ENCODING 9341
SWIDTH 500 0
DWIDTH 24 0
BBX 24 18 0 -4
BITMAP
7ffffc
3ffffe
007b00
00ff00
01e300
019300
009f00
007f00
003f00
007b00
00ff00
01c300
018300
008700
007f00
003f00
000300
000100
ENDCHAR
STARTCHAR c247e
ENCODING 9342
SWIDTH 500 0
DWIDTH 24 0
BBX 24 14 0 0
BITMAP
380ffc
1c07fe
020180
030180
030180
0fff80
0fff80
070180
030180
003f80
007f80
003980
001180
000080
ENDCHAR
ENDFONT
